<svg width="358" height="7372" viewBox="0 0 358 7372" fill="none" xmlns="http://www.w3.org/2000/svg">
<path d="M0.605999 7372H1.84931e-05L0 -24L0.605981 -24L0.605999 7372Z" fill="url(#paint0_radial_125_5084)" fill-opacity="0.8"/>
<path d="M89.9545 7372H89.3485L89.3485 -24L89.9545 -24L89.9545 7372Z" fill="url(#paint1_radial_125_5084)" fill-opacity="0.8"/>
<path d="M179.303 7372H178.697L178.697 -24L179.303 -24L179.303 7372Z" fill="url(#paint2_radial_125_5084)" fill-opacity="0.8"/>
<path d="M268.651 7372H268.045L268.045 -24L268.651 -24L268.651 7372Z" fill="url(#paint3_radial_125_5084)" fill-opacity="0.8"/>
<path d="M358 7372H357.394L357.394 -24L358 -24L358 7372Z" fill="url(#paint4_radial_125_5084)" fill-opacity="0.8"/>
<defs>
<radialGradient id="paint0_radial_125_5084" cx="0" cy="0" r="1" gradientTransform="matrix(-178.957 -0.525552 17.8486 -6725.08 178.688 3674.53)" gradientUnits="userSpaceOnUse">
<stop stop-color="white" stop-opacity="0.22"/>
<stop offset="1" stop-color="white" stop-opacity="0.01"/>
</radialGradient>
<radialGradient id="paint1_radial_125_5084" cx="0" cy="0" r="1" gradientTransform="matrix(-178.957 -0.525552 17.8486 -6725.08 178.688 3674.53)" gradientUnits="userSpaceOnUse">
<stop stop-color="white" stop-opacity="0.22"/>
<stop offset="1" stop-color="white" stop-opacity="0.01"/>
</radialGradient>
<radialGradient id="paint2_radial_125_5084" cx="0" cy="0" r="1" gradientTransform="matrix(-178.957 -0.525552 17.8486 -6725.08 178.688 3674.53)" gradientUnits="userSpaceOnUse">
<stop stop-color="white" stop-opacity="0.22"/>
<stop offset="1" stop-color="white" stop-opacity="0.01"/>
</radialGradient>
<radialGradient id="paint3_radial_125_5084" cx="0" cy="0" r="1" gradientTransform="matrix(-178.957 -0.525552 17.8486 -6725.08 178.688 3674.53)" gradientUnits="userSpaceOnUse">
<stop stop-color="white" stop-opacity="0.22"/>
<stop offset="1" stop-color="white" stop-opacity="0.01"/>
</radialGradient>
<radialGradient id="paint4_radial_125_5084" cx="0" cy="0" r="1" gradientTransform="matrix(-178.957 -0.525552 17.8486 -6725.08 178.688 3674.53)" gradientUnits="userSpaceOnUse">
<stop stop-color="white" stop-opacity="0.22"/>
<stop offset="1" stop-color="white" stop-opacity="0.01"/>
</radialGradient>
</defs>
</svg>
