<svg width="1034" height="6084" viewBox="0 0 1034 6084" fill="none" xmlns="http://www.w3.org/2000/svg">
<path d="M1.00089 6084H3.05438e-05L0 3.48545e-07L1.00086 0L1.00089 6084Z" fill="url(#paint0_radial_81_241)" fill-opacity="0.8"/>
<path d="M148.572 6084H147.571L147.571 3.48545e-07L148.572 0L148.572 6084Z" fill="url(#paint1_radial_81_241)" fill-opacity="0.8"/>
<path d="M296.143 6084H295.143L295.143 3.48545e-07L296.143 0L296.143 6084Z" fill="url(#paint2_radial_81_241)" fill-opacity="0.8"/>
<path d="M443.715 6084H442.714L442.714 3.48545e-07L443.715 0L443.715 6084Z" fill="url(#paint3_radial_81_241)" fill-opacity="0.8"/>
<path d="M591.286 6084H590.285L590.285 3.48545e-07L591.286 0L591.286 6084Z" fill="url(#paint4_radial_81_241)" fill-opacity="0.8"/>
<path d="M738.857 6084H737.857L737.857 3.48545e-07L738.857 0L738.857 6084Z" fill="url(#paint5_radial_81_241)" fill-opacity="0.8"/>
<path d="M886.429 6084H885.428V3.48545e-07L886.429 0V6084Z" fill="url(#paint6_radial_81_241)" fill-opacity="0.8"/>
<path d="M1034 6084H1033V3.48545e-07L1034 0V6084Z" fill="url(#paint7_radial_81_241)" fill-opacity="0.8"/>
<defs>
<radialGradient id="paint0_radial_81_241" cx="0" cy="0" r="1" gradientUnits="userSpaceOnUse" gradientTransform="translate(517 3042) rotate(180) scale(517.445 5581.84)">
<stop stop-color="white" stop-opacity="0.12"/>
<stop offset="1" stop-color="white" stop-opacity="0.01"/>
</radialGradient>
<radialGradient id="paint1_radial_81_241" cx="0" cy="0" r="1" gradientUnits="userSpaceOnUse" gradientTransform="translate(517 3042) rotate(180) scale(517.445 5581.84)">
<stop stop-color="white" stop-opacity="0.12"/>
<stop offset="1" stop-color="white" stop-opacity="0.01"/>
</radialGradient>
<radialGradient id="paint2_radial_81_241" cx="0" cy="0" r="1" gradientUnits="userSpaceOnUse" gradientTransform="translate(517 3042) rotate(180) scale(517.445 5581.84)">
<stop stop-color="white" stop-opacity="0.12"/>
<stop offset="1" stop-color="white" stop-opacity="0.01"/>
</radialGradient>
<radialGradient id="paint3_radial_81_241" cx="0" cy="0" r="1" gradientUnits="userSpaceOnUse" gradientTransform="translate(517 3042) rotate(180) scale(517.445 5581.84)">
<stop stop-color="white" stop-opacity="0.12"/>
<stop offset="1" stop-color="white" stop-opacity="0.01"/>
</radialGradient>
<radialGradient id="paint4_radial_81_241" cx="0" cy="0" r="1" gradientUnits="userSpaceOnUse" gradientTransform="translate(517 3042) rotate(180) scale(517.445 5581.84)">
<stop stop-color="white" stop-opacity="0.12"/>
<stop offset="1" stop-color="white" stop-opacity="0.01"/>
</radialGradient>
<radialGradient id="paint5_radial_81_241" cx="0" cy="0" r="1" gradientUnits="userSpaceOnUse" gradientTransform="translate(517 3042) rotate(180) scale(517.445 5581.84)">
<stop stop-color="white" stop-opacity="0.12"/>
<stop offset="1" stop-color="white" stop-opacity="0.01"/>
</radialGradient>
<radialGradient id="paint6_radial_81_241" cx="0" cy="0" r="1" gradientUnits="userSpaceOnUse" gradientTransform="translate(517 3042) rotate(180) scale(517.445 5581.84)">
<stop stop-color="white" stop-opacity="0.12"/>
<stop offset="1" stop-color="white" stop-opacity="0.01"/>
</radialGradient>
<radialGradient id="paint7_radial_81_241" cx="0" cy="0" r="1" gradientUnits="userSpaceOnUse" gradientTransform="translate(517 3042) rotate(180) scale(517.445 5581.84)">
<stop stop-color="white" stop-opacity="0.12"/>
<stop offset="1" stop-color="white" stop-opacity="0.01"/>
</radialGradient>
</defs>
</svg>
