<svg width="172" height="29" viewBox="0 0 172 29" fill="none" xmlns="http://www.w3.org/2000/svg">
<path d="M0.000214905 25.5999L18.3202 3.1999H0.360215V-9.91821e-05H22.5202V2.7999L4.52022 25.1999H22.5202V28.3999H0.000214905V25.5999Z" fill="#FFD700"/>
<path d="M35.4487 28.7999C33.8753 28.7999 32.4353 28.5199 31.1287 27.9599C29.8487 27.3732 28.7287 26.5866 27.7687 25.5999C26.8353 24.5866 26.102 23.4266 25.5687 22.1199C25.062 20.8132 24.8087 19.4266 24.8087 17.9599C24.8087 15.9866 25.262 14.1866 26.1687 12.5599C27.0753 10.9332 28.3287 9.62657 29.9287 8.6399C31.5553 7.65323 33.4087 7.1599 35.4887 7.1599C37.5953 7.1599 39.422 7.66657 40.9687 8.6799C42.542 9.66657 43.7553 10.9732 44.6087 12.5999C45.4887 14.1999 45.9287 15.9332 45.9287 17.7999C45.9287 18.0666 45.9153 18.3332 45.8887 18.5999C45.8887 18.8399 45.8753 19.0266 45.8487 19.1599H28.5287C28.6353 20.5199 29.0087 21.7332 29.6487 22.7999C30.3153 23.8399 31.1687 24.6666 32.2087 25.2799C33.2487 25.8666 34.3687 26.1599 35.5687 26.1599C36.8487 26.1599 38.0487 25.8399 39.1687 25.1999C40.3153 24.5599 41.102 23.7199 41.5287 22.6799L44.5687 23.5199C44.1153 24.5332 43.4353 25.4399 42.5287 26.2399C41.6487 27.0399 40.5953 27.6666 39.3687 28.1199C38.1687 28.5732 36.862 28.7999 35.4487 28.7999ZM28.4087 16.7199H42.6487C42.542 15.3599 42.1553 14.1599 41.4887 13.1199C40.822 12.0799 39.9687 11.2666 38.9287 10.6799C37.8887 10.0932 36.742 9.7999 35.4887 9.7999C34.262 9.7999 33.1287 10.0932 32.0887 10.6799C31.0487 11.2666 30.1953 12.0799 29.5287 13.1199C28.8887 14.1599 28.5153 15.3599 28.4087 16.7199ZM67.9615 28.3999H64.4415V16.7199C64.4415 14.5066 64.0948 12.8932 63.4015 11.8799C62.7348 10.8399 61.7081 10.3199 60.3215 10.3199C59.3615 10.3199 58.4015 10.5599 57.4415 11.0399C56.5081 11.5199 55.6681 12.1732 54.9215 12.9999C54.2015 13.7999 53.6815 14.7332 53.3615 15.7999V28.3999H49.8415V7.5199H53.0415V11.9999C53.6015 11.0132 54.3215 10.1599 55.2015 9.4399C56.0815 8.7199 57.0815 8.1599 58.2015 7.7599C59.3215 7.3599 60.4948 7.1599 61.7215 7.1599C62.9215 7.1599 63.9215 7.38657 64.7215 7.8399C65.5481 8.26657 66.1881 8.8799 66.6415 9.6799C67.1215 10.4532 67.4548 11.3732 67.6415 12.4399C67.8548 13.5066 67.9615 14.6666 67.9615 15.9199V28.3999ZM82.5552 28.7999C80.9819 28.7999 79.5552 28.5199 78.2752 27.9599C76.9952 27.3732 75.8885 26.5866 74.9552 25.5999C74.0219 24.5866 73.3019 23.4266 72.7952 22.1199C72.2885 20.8132 72.0352 19.4399 72.0352 17.9999C72.0352 16.5332 72.2885 15.1466 72.7952 13.8399C73.3019 12.5332 74.0219 11.3866 74.9552 10.3999C75.8885 9.38657 76.9952 8.5999 78.2752 8.0399C79.5819 7.45324 81.0085 7.1599 82.5552 7.1599C84.1285 7.1599 85.5552 7.45324 86.8352 8.0399C88.1152 8.5999 89.2219 9.38657 90.1552 10.3999C91.1152 11.3866 91.8485 12.5332 92.3552 13.8399C92.8619 15.1466 93.1152 16.5332 93.1152 17.9999C93.1152 19.4399 92.8619 20.8132 92.3552 22.1199C91.8485 23.4266 91.1285 24.5866 90.1952 25.5999C89.2619 26.5866 88.1419 27.3732 86.8352 27.9599C85.5552 28.5199 84.1285 28.7999 82.5552 28.7999ZM75.6352 18.0399C75.6352 19.4799 75.9419 20.7866 76.5552 21.9599C77.1952 23.1332 78.0352 24.0666 79.0752 24.7599C80.1152 25.4266 81.2752 25.7599 82.5552 25.7599C83.8352 25.7599 84.9952 25.4132 86.0352 24.7199C87.1019 24.0266 87.9419 23.0932 88.5552 21.9199C89.1952 20.7199 89.5152 19.3999 89.5152 17.9599C89.5152 16.5199 89.1952 15.2132 88.5552 14.0399C87.9419 12.8666 87.1019 11.9332 86.0352 11.2399C84.9952 10.5466 83.8352 10.1999 82.5552 10.1999C81.2752 10.1999 80.1152 10.5599 79.0752 11.2799C78.0352 11.9732 77.1952 12.9066 76.5552 14.0799C75.9419 15.2532 75.6352 16.5732 75.6352 18.0399ZM96.0062 -9.91821e-05L105.406 23.8799L114.766 -9.91821e-05H118.566L107.046 28.3999H103.766L92.2062 -9.91821e-05H96.0062ZM122.394 28.3999V-9.91821e-05H134.234C135.487 -9.91821e-05 136.634 0.266567 137.674 0.7999C138.714 1.30657 139.62 1.9999 140.394 2.8799C141.167 3.73324 141.767 4.70657 142.194 5.7999C142.62 6.86657 142.834 7.9599 142.834 9.0799C142.834 10.6266 142.487 12.1066 141.794 13.5199C141.1 14.9066 140.127 16.0399 138.874 16.9199C137.62 17.7732 136.154 18.1999 134.474 18.1999H125.994V28.3999H122.394ZM125.994 14.9999H134.274C135.26 14.9999 136.114 14.7332 136.834 14.1999C137.58 13.6666 138.154 12.9466 138.554 12.0399C138.98 11.1332 139.194 10.1466 139.194 9.0799C139.194 7.9599 138.954 6.9599 138.474 6.0799C137.994 5.17324 137.367 4.46657 136.594 3.9599C135.82 3.45323 134.967 3.1999 134.034 3.1999H125.994V14.9999ZM150.916 6.6399V28.3999H147.316V-9.91821e-05H150.356L167.716 22.1999V0.0399003H171.316V28.3999H168.036L150.916 6.6399Z" fill="white"/>
</svg>
