<svg width="172" height="29" viewBox="0 0 172 29" fill="none" xmlns="http://www.w3.org/2000/svg">
<path d="M0.000214905 25.6L18.3202 3.20002H0.360215V2.28882e-05H22.5202V2.80002L4.52022 25.2H22.5202V28.4H0.000214905V25.6Z" fill="#FFD700"/>
<path d="M35.4487 28.8C33.8753 28.8 32.4353 28.52 31.1287 27.96C29.8487 27.3734 28.7287 26.5867 27.7687 25.6C26.8353 24.5867 26.102 23.4267 25.5687 22.12C25.062 20.8134 24.8087 19.4267 24.8087 17.96C24.8087 15.9867 25.262 14.1867 26.1687 12.56C27.0753 10.9334 28.3287 9.62669 29.9287 8.64002C31.5553 7.65336 33.4087 7.16002 35.4887 7.16002C37.5953 7.16002 39.422 7.66669 40.9687 8.68002C42.542 9.66669 43.7553 10.9734 44.6087 12.6C45.4887 14.2 45.9287 15.9334 45.9287 17.8C45.9287 18.0667 45.9153 18.3334 45.8887 18.6C45.8887 18.84 45.8753 19.0267 45.8487 19.16H28.5287C28.6353 20.52 29.0087 21.7334 29.6487 22.8C30.3153 23.84 31.1687 24.6667 32.2087 25.28C33.2487 25.8667 34.3687 26.16 35.5687 26.16C36.8487 26.16 38.0487 25.84 39.1687 25.2C40.3153 24.56 41.102 23.72 41.5287 22.68L44.5687 23.52C44.1153 24.5334 43.4353 25.44 42.5287 26.24C41.6487 27.04 40.5953 27.6667 39.3687 28.12C38.1687 28.5734 36.862 28.8 35.4487 28.8ZM28.4087 16.72H42.6487C42.542 15.36 42.1553 14.16 41.4887 13.12C40.822 12.08 39.9687 11.2667 38.9287 10.68C37.8887 10.0934 36.742 9.80002 35.4887 9.80002C34.262 9.80002 33.1287 10.0934 32.0887 10.68C31.0487 11.2667 30.1953 12.08 29.5287 13.12C28.8887 14.16 28.5153 15.36 28.4087 16.72ZM67.9615 28.4H64.4415V16.72C64.4415 14.5067 64.0948 12.8934 63.4015 11.88C62.7348 10.84 61.7081 10.32 60.3215 10.32C59.3615 10.32 58.4015 10.56 57.4415 11.04C56.5081 11.52 55.6681 12.1734 54.9215 13C54.2015 13.8 53.6815 14.7334 53.3615 15.8V28.4H49.8415V7.52002H53.0415V12C53.6015 11.0134 54.3215 10.16 55.2015 9.44002C56.0815 8.72002 57.0815 8.16002 58.2015 7.76002C59.3215 7.36002 60.4948 7.16002 61.7215 7.16002C62.9215 7.16002 63.9215 7.38669 64.7215 7.84002C65.5481 8.26669 66.1881 8.88002 66.6415 9.68002C67.1215 10.4534 67.4548 11.3734 67.6415 12.44C67.8548 13.5067 67.9615 14.6667 67.9615 15.92V28.4ZM82.5552 28.8C80.9819 28.8 79.5552 28.52 78.2752 27.96C76.9952 27.3734 75.8885 26.5867 74.9552 25.6C74.0219 24.5867 73.3019 23.4267 72.7952 22.12C72.2885 20.8134 72.0352 19.44 72.0352 18C72.0352 16.5334 72.2885 15.1467 72.7952 13.84C73.3019 12.5334 74.0219 11.3867 74.9552 10.4C75.8885 9.38669 76.9952 8.60002 78.2752 8.04002C79.5819 7.45336 81.0085 7.16002 82.5552 7.16002C84.1285 7.16002 85.5552 7.45336 86.8352 8.04002C88.1152 8.60002 89.2219 9.38669 90.1552 10.4C91.1152 11.3867 91.8485 12.5334 92.3552 13.84C92.8619 15.1467 93.1152 16.5334 93.1152 18C93.1152 19.44 92.8619 20.8134 92.3552 22.12C91.8485 23.4267 91.1285 24.5867 90.1952 25.6C89.2619 26.5867 88.1419 27.3734 86.8352 27.96C85.5552 28.52 84.1285 28.8 82.5552 28.8ZM75.6352 18.04C75.6352 19.48 75.9419 20.7867 76.5552 21.96C77.1952 23.1334 78.0352 24.0667 79.0752 24.76C80.1152 25.4267 81.2752 25.76 82.5552 25.76C83.8352 25.76 84.9952 25.4134 86.0352 24.72C87.1019 24.0267 87.9419 23.0934 88.5552 21.92C89.1952 20.72 89.5152 19.4 89.5152 17.96C89.5152 16.52 89.1952 15.2134 88.5552 14.04C87.9419 12.8667 87.1019 11.9334 86.0352 11.24C84.9952 10.5467 83.8352 10.2 82.5552 10.2C81.2752 10.2 80.1152 10.56 79.0752 11.28C78.0352 11.9734 77.1952 12.9067 76.5552 14.08C75.9419 15.2534 75.6352 16.5734 75.6352 18.04ZM96.0062 2.28882e-05L105.406 23.88L114.766 2.28882e-05H118.566L107.046 28.4H103.766L92.2062 2.28882e-05H96.0062ZM122.394 28.4V2.28882e-05H134.234C135.487 2.28882e-05 136.634 0.266689 137.674 0.800022C138.714 1.30669 139.62 2.00002 140.394 2.88002C141.167 3.73336 141.767 4.70669 142.194 5.80002C142.62 6.86669 142.834 7.96002 142.834 9.08002C142.834 10.6267 142.487 12.1067 141.794 13.52C141.1 14.9067 140.127 16.04 138.874 16.92C137.62 17.7734 136.154 18.2 134.474 18.2H125.994V28.4H122.394ZM125.994 15H134.274C135.26 15 136.114 14.7334 136.834 14.2C137.58 13.6667 138.154 12.9467 138.554 12.04C138.98 11.1334 139.194 10.1467 139.194 9.08002C139.194 7.96002 138.954 6.96002 138.474 6.08002C137.994 5.17336 137.367 4.46669 136.594 3.96002C135.82 3.45336 134.967 3.20002 134.034 3.20002H125.994V15ZM150.916 6.64002V28.4H147.316V2.28882e-05H150.356L167.716 22.2V0.0400224H171.316V28.4H168.036L150.916 6.64002Z" fill="white"/>
</svg>
