<svg display="none" xmlns="http://www.w3.org/2000/svg" aria-hidden="true"
    style="position: absolute; width: 0; height: 0; overflow: hidden;" version="1.1">
    <symbol id="telegram" viewBox="0 0 21 18">
        <path
            d="M19.1273 0.152561C16.3701 1.29436 4.54795 6.19134 1.28138 7.52608C-0.909375 8.381 0.373005 9.18246 0.373005 9.18246C0.373005 9.18246 2.243 9.82354 3.84592 10.3045C5.44884 10.7854 6.30376 10.251 6.30376 10.251L13.8374 5.17494C16.5089 3.3584 15.8678 4.8544 15.2267 5.49548C13.8374 6.88478 11.54 9.07532 9.61653 10.8386C8.76161 11.5866 9.18906 12.2279 9.56307 12.5485C10.9524 13.7239 14.7458 16.1283 14.9597 16.2887C16.0885 17.0877 18.3087 18.2381 18.6464 15.8078L19.9823 7.41916C20.4097 4.58732 20.8372 1.9691 20.8906 1.2211C21.0508 -0.595439 19.1273 0.152561 19.1273 0.152561Z"
            fill="#0B1217" />
    </symbol>
    <symbol id="arrow-right" viewBox="0 0 17 15">
        <path
            d="M16.7283 6.41088L10.589 0.271445C10.4137 0.0961943 10.1802 0 9.9311 0C9.68177 0 9.44833 0.0963325 9.27308 0.271445L8.71568 0.828985C8.54057 1.00396 8.44409 1.23767 8.44409 1.48687C8.44409 1.73592 8.54057 1.97751 8.71568 2.15249L12.2973 5.74194H0.918407C0.405371 5.74194 0 6.14358 0 6.65676V7.44497C0 7.95815 0.405371 8.40028 0.918407 8.40028H12.3379L8.71582 12.0098C8.5407 12.185 8.44423 12.4124 8.44423 12.6616C8.44423 12.9105 8.5407 13.1412 8.71582 13.3163L9.27322 13.872C9.44847 14.0473 9.68191 14.1428 9.93124 14.1428C10.1803 14.1428 10.4139 14.046 10.5891 13.8708L16.7284 7.73148C16.9041 7.55568 17.0007 7.321 17 7.07153C17.0006 6.82123 16.9041 6.58641 16.7283 6.41088Z"
            fill="#0B1217" />
    </symbol>
    <symbol id="flag-en" viewBox="0 0 24 24">
        <path
            d="M12 24C18.6274 24 24 18.6274 24 12C24 5.37258 18.6274 0 12 0C5.37258 0 0 5.37258 0 12C0 18.6274 5.37258 24 12 24Z"
            fill="#F0F0F0" />
        <path d="M2.47934 4.69531C1.53673 5.9217 0.825969 7.33522 0.412109 8.8708H6.65483L2.47934 4.69531Z"
            fill="#0052B4" />
        <path d="M23.5864 8.87075C23.1725 7.33522 22.4617 5.9217 21.5191 4.69531L17.3438 8.87075H23.5864Z"
            fill="#0052B4" />
        <path d="M0.412109 15.1309C0.826016 16.6664 1.53678 18.0799 2.47934 19.3063L6.65469 15.1309H0.412109Z"
            fill="#0052B4" />
        <path d="M19.3043 2.48134C18.078 1.53873 16.6645 0.827969 15.1289 0.414062V6.65673L19.3043 2.48134Z"
            fill="#0052B4" />
        <path d="M4.69336 21.5191C5.91975 22.4617 7.33327 23.1725 8.8688 23.5864V17.3438L4.69336 21.5191Z"
            fill="#0052B4" />
        <path d="M8.86875 0.414062C7.33322 0.827969 5.9197 1.53873 4.69336 2.4813L8.86875 6.65669V0.414062Z"
            fill="#0052B4" />
        <path d="M15.1289 23.5864C16.6644 23.1725 18.078 22.4617 19.3043 21.5191L15.1289 17.3438V23.5864Z"
            fill="#0052B4" />
        <path d="M17.3438 15.1309L21.5191 19.3063C22.4617 18.08 23.1725 16.6664 23.5864 15.1309H17.3438Z"
            fill="#0052B4" />
        <path
            d="M23.8984 10.4348H13.5653H13.5652V0.101578C13.0529 0.034875 12.5305 0 12 0C11.4694 0 10.9471 0.034875 10.4348 0.101578V10.4347V10.4348H0.101578C0.034875 10.9471 0 11.4695 0 12C0 12.5306 0.034875 13.0529 0.101578 13.5652H10.4347H10.4348V23.8984C10.9471 23.9651 11.4694 24 12 24C12.5305 24 13.0529 23.9652 13.5652 23.8984V13.5653V13.5652H23.8984C23.9651 13.0529 24 12.5306 24 12C24 11.4695 23.9651 10.9471 23.8984 10.4348Z"
            fill="#D80027" />
        <path
            d="M15.1299 15.1302L20.4847 20.485C20.731 20.2388 20.9659 19.9814 21.1901 19.7146L16.6056 15.1301H15.1299V15.1302Z"
            fill="#D80027" />
        <path
            d="M8.86951 15.1301H8.86941L3.51465 20.4849C3.76084 20.7312 4.01823 20.9661 4.28504 21.1903L8.86951 16.6057V15.1301Z"
            fill="#D80027" />
        <path
            d="M8.87073 8.86936V8.86926L3.51592 3.5144C3.26964 3.76059 3.0347 4.01798 2.81055 4.28479L7.39506 8.86931L8.87073 8.86936Z"
            fill="#D80027" />
        <path
            d="M15.1299 8.87078L20.4847 3.51588C20.2386 3.26959 19.9812 3.03466 19.7144 2.81055L15.1299 7.39506V8.87078Z"
            fill="#D80027" />
    </symbol>
    <symbol id="flag-ar" viewBox="0 0 24 24">
        <path
            d="M12 24C18.6274 24 24 18.6274 24 12C24 5.37258 18.6274 0 12 0C5.37258 0 0 5.37258 0 12C0 18.6274 5.37258 24 12 24Z"
            fill="#F0F0F0" />
        <path
            d="M6.78271 16.1738L7.8262 23.2536C9.12614 23.736 10.5322 23.9999 12.0001 23.9999C17.1596 23.9999 21.5582 20.7434 23.2537 16.1738H6.78271Z"
            fill="black" />
        <path
            d="M6.78271 7.82611L7.8262 0.746297C9.12614 0.263906 10.5322 0 12.0001 0C17.1596 0 21.5582 3.2565 23.2537 7.82611H6.78271Z"
            fill="#6DA544" />
        <path d="M0 12.0007C0 17.1603 3.25655 21.5588 7.82611 23.2543V0.74707C3.25655 2.44259 0 6.8411 0 12.0007Z"
            fill="#A2001D" />
    </symbol>
    <symbol id="flag-ru" viewBox="0 0 24 24">
        <path
            d="M12 24C18.6274 24 24 18.6274 24 12C24 5.37258 18.6274 0 12 0C5.37258 0 0 5.37258 0 12C0 18.6274 5.37258 24 12 24Z"
            fill="#F0F0F0" />
        <path
            d="M23.2536 16.174C23.736 14.874 24 13.4679 24 12.0001C24 10.5322 23.736 9.12616 23.2536 7.82617H0.746391C0.264047 9.12616 0 10.5322 0 12.0001C0 13.4679 0.264047 14.874 0.746391 16.174L12 17.2174L23.2536 16.174Z"
            fill="#0052B4" />
        <path
            d="M11.9997 23.9999C17.1593 23.9999 21.5578 20.7434 23.2533 16.1738H0.746094C2.44161 20.7434 6.84012 23.9999 11.9997 23.9999Z"
            fill="#D80027" />
    </symbol>
    <symbol id="arrow-bottom" viewBox="0 0 18 18">
        <path
            d="M8.99693 12.0001C9.09564 12.0007 9.19348 11.9818 9.28486 11.9445C9.37624 11.9071 9.45935 11.8521 9.52943 11.7826L14.0294 7.28264C14.1707 7.14141 14.25 6.94987 14.25 6.75014C14.25 6.55041 14.1707 6.35887 14.0294 6.21764C13.8882 6.07641 13.6967 5.99707 13.4969 5.99707C13.2972 5.99707 13.1057 6.07641 12.9644 6.21764L8.99693 10.1926L5.02943 6.22514C4.88596 6.10227 4.7014 6.03806 4.51264 6.04535C4.32389 6.05265 4.14483 6.1309 4.01126 6.26447C3.87769 6.39804 3.79944 6.57709 3.79215 6.76585C3.78486 6.9546 3.84906 7.13916 3.97193 7.28264L8.47193 11.7826C8.61163 11.9212 8.80018 11.9993 8.99693 12.0001Z"
            fill="#FFD700" />
    </symbol>
</svg>