<svg display="none" xmlns="http://www.w3.org/2000/svg" aria-hidden="true"
    style="position: absolute; width: 0; height: 0; overflow: hidden;" version="1.1">
    <symbol id="telegram" viewBox="0 0 21 18">
        <path
            d="M19.1273 0.152561C16.3701 1.29436 4.54795 6.19134 1.28138 7.52608C-0.909375 8.381 0.373005 9.18246 0.373005 9.18246C0.373005 9.18246 2.243 9.82354 3.84592 10.3045C5.44884 10.7854 6.30376 10.251 6.30376 10.251L13.8374 5.17494C16.5089 3.3584 15.8678 4.8544 15.2267 5.49548C13.8374 6.88478 11.54 9.07532 9.61653 10.8386C8.76161 11.5866 9.18906 12.2279 9.56307 12.5485C10.9524 13.7239 14.7458 16.1283 14.9597 16.2887C16.0885 17.0877 18.3087 18.2381 18.6464 15.8078L19.9823 7.41916C20.4097 4.58732 20.8372 1.9691 20.8906 1.2211C21.0508 -0.595439 19.1273 0.152561 19.1273 0.152561Z"
            fill="#0B1217" />
    </symbol>
    <symbol id="arrow-right" viewBox="0 0 17 15">
        <path
            d="M16.7283 6.41088L10.589 0.271445C10.4137 0.0961943 10.1802 0 9.9311 0C9.68177 0 9.44833 0.0963325 9.27308 0.271445L8.71568 0.828985C8.54057 1.00396 8.44409 1.23767 8.44409 1.48687C8.44409 1.73592 8.54057 1.97751 8.71568 2.15249L12.2973 5.74194H0.918407C0.405371 5.74194 0 6.14358 0 6.65676V7.44497C0 7.95815 0.405371 8.40028 0.918407 8.40028H12.3379L8.71582 12.0098C8.5407 12.185 8.44423 12.4124 8.44423 12.6616C8.44423 12.9105 8.5407 13.1412 8.71582 13.3163L9.27322 13.872C9.44847 14.0473 9.68191 14.1428 9.93124 14.1428C10.1803 14.1428 10.4139 14.046 10.5891 13.8708L16.7284 7.73148C16.9041 7.55568 17.0007 7.321 17 7.07153C17.0006 6.82123 16.9041 6.58641 16.7283 6.41088Z"
            fill="#0B1217" />
    </symbol>
    <symbol id="arrow-bottom" viewBox="0 0 18 18">
        <path d="M8.73535 1.19762C8.24804 1.19762 7.853 1.59266 7.853 2.07998L7.85301 16.2221C7.85301 16.7095 8.24799 17.1044 8.73531 17.1044C9.22263 17.1044 9.6177 16.7094 9.6177 16.2221L9.6177 2.07998C9.6177 1.59265 9.22266 1.19762 8.73535 1.19762Z" fill="#FFD700"/>
        <path d="M0.623411 8.11107C0.278842 8.45563 0.278825 9.01432 0.62341 9.3589L8.11046 16.8459C8.45503 17.1905 9.01372 17.1905 9.35829 16.8459L16.8453 9.3589C17.1899 9.01432 17.1899 8.45563 16.8453 8.11107C16.5007 7.76641 15.9421 7.76648 15.5975 8.11107L8.73438 14.9742L1.87125 8.11107C1.52666 7.76648 0.968063 7.76641 0.623411 8.11107Z" fill="#FFD700"/>
    </symbol>
    <symbol id="flag-en" viewBox="0 0 24 24">
        <path
            d="M12 24C18.6274 24 24 18.6274 24 12C24 5.37258 18.6274 0 12 0C5.37258 0 0 5.37258 0 12C0 18.6274 5.37258 24 12 24Z"
            fill="#F0F0F0" />
        <path d="M2.47934 4.69531C1.53673 5.9217 0.825969 7.33522 0.412109 8.8708H6.65483L2.47934 4.69531Z"
            fill="#0052B4" />
        <path d="M23.5864 8.87075C23.1725 7.33522 22.4617 5.9217 21.5191 4.69531L17.3438 8.87075H23.5864Z"
            fill="#0052B4" />
        <path d="M0.412109 15.1309C0.826016 16.6664 1.53678 18.0799 2.47934 19.3063L6.65469 15.1309H0.412109Z"
            fill="#0052B4" />
        <path d="M19.3043 2.48134C18.078 1.53873 16.6645 0.827969 15.1289 0.414062V6.65673L19.3043 2.48134Z"
            fill="#0052B4" />
        <path d="M4.69336 21.5191C5.91975 22.4617 7.33327 23.1725 8.8688 23.5864V17.3438L4.69336 21.5191Z"
            fill="#0052B4" />
        <path d="M8.86875 0.414062C7.33322 0.827969 5.9197 1.53873 4.69336 2.4813L8.86875 6.65669V0.414062Z"
            fill="#0052B4" />
        <path d="M15.1289 23.5864C16.6644 23.1725 18.078 22.4617 19.3043 21.5191L15.1289 17.3438V23.5864Z"
            fill="#0052B4" />
        <path d="M17.3438 15.1309L21.5191 19.3063C22.4617 18.08 23.1725 16.6664 23.5864 15.1309H17.3438Z"
            fill="#0052B4" />
        <path
            d="M23.8984 10.4348H13.5653H13.5652V0.101578C13.0529 0.034875 12.5305 0 12 0C11.4694 0 10.9471 0.034875 10.4348 0.101578V10.4347V10.4348H0.101578C0.034875 10.9471 0 11.4695 0 12C0 12.5306 0.034875 13.0529 0.101578 13.5652H10.4347H10.4348V23.8984C10.9471 23.9651 11.4694 24 12 24C12.5305 24 13.0529 23.9652 13.5652 23.8984V13.5653V13.5652H23.8984C23.9651 13.0529 24 12.5306 24 12C24 11.4695 23.9651 10.9471 23.8984 10.4348Z"
            fill="#D80027" />
        <path
            d="M15.1299 15.1302L20.4847 20.485C20.731 20.2388 20.9659 19.9814 21.1901 19.7146L16.6056 15.1301H15.1299V15.1302Z"
            fill="#D80027" />
        <path
            d="M8.86951 15.1301H8.86941L3.51465 20.4849C3.76084 20.7312 4.01823 20.9661 4.28504 21.1903L8.86951 16.6057V15.1301Z"
            fill="#D80027" />
        <path
            d="M8.87073 8.86936V8.86926L3.51592 3.5144C3.26964 3.76059 3.0347 4.01798 2.81055 4.28479L7.39506 8.86931L8.87073 8.86936Z"
            fill="#D80027" />
        <path
            d="M15.1299 8.87078L20.4847 3.51588C20.2386 3.26959 19.9812 3.03466 19.7144 2.81055L15.1299 7.39506V8.87078Z"
            fill="#D80027" />
    </symbol>
    <symbol id="upload" viewBox="0 0 20 20">
        <path d="M15.5555 20H4.44443C3.25736 20 2.14127 19.5377 1.30177 18.6982C0.462309 17.8588 0 16.7427 0 15.5555V14.4444C0 13.8307 0.497435 13.3332 1.11112 13.3332C1.7248 13.3332 2.22224 13.8307 2.22224 14.4444V15.5555C2.22224 16.1491 2.45341 16.7071 2.87306 17.1268C3.29283 17.5466 3.85085 17.7778 4.44443 17.7778H15.5555C16.1491 17.7778 16.7071 17.5466 17.1268 17.1268C17.5466 16.7071 17.7778 16.149 17.7778 15.5555V14.4444C17.7778 13.8307 18.2752 13.3332 18.8888 13.3332C19.5025 13.3332 20 13.8307 20 14.4444V15.5555C20 16.7426 19.5377 17.8587 18.6982 18.6982C17.8587 19.5377 16.7426 20 15.5555 20ZM9.99998 0C9.84628 0 9.69995 0.0312055 9.56682 0.0876017C9.44262 0.140078 9.3259 0.216308 9.22379 0.31602L9.2215 0.318271L9.21913 0.3206L9.218 0.321726L9.21676 0.322928L9.21435 0.325336L4.76988 4.76984C4.33599 5.20374 4.33599 5.90728 4.76988 6.34121C5.20378 6.77511 5.90736 6.77515 6.34125 6.34121L8.8889 3.79356V14.4444C8.88886 15.0581 9.3863 15.5555 9.99998 15.5555C10.6137 15.5555 11.1111 15.0581 11.1111 14.4444V3.7936L13.6587 6.34121C14.0926 6.77511 14.7963 6.77511 15.2301 6.34121C15.664 5.90732 15.664 5.20374 15.2301 4.76984L10.7856 0.325413L10.7832 0.323007L10.782 0.321803L10.7809 0.320678L10.7792 0.31897L10.7763 0.316175C10.7641 0.30426 10.7516 0.292616 10.739 0.28136C10.646 0.198376 10.5423 0.133674 10.4328 0.0874863L10.4317 0.087019L10.4305 0.0865145C10.298 0.0307393 10.1526 0 9.99998 0Z" fill=""/>
    </symbol>
    <symbol id="download" viewBox="0 0 20 20">
        <path d="M15.5555 20H4.44443C3.25736 20 2.14127 19.5377 1.30177 18.6982C0.462309 17.8588 0 16.7427 0 15.5555V14.4444C0 13.8307 0.497435 13.3332 1.11112 13.3332C1.7248 13.3332 2.22224 13.8307 2.22224 14.4444V15.5555C2.22224 16.1491 2.45341 16.7071 2.87306 17.1268C3.29283 17.5466 3.85085 17.7778 4.44443 17.7778H15.5555C16.1491 17.7778 16.7071 17.5466 17.1268 17.1268C17.5466 16.7071 17.7778 16.149 17.7778 15.5555V14.4444C17.7778 13.8307 18.2752 13.3332 18.8888 13.3332C19.5025 13.3332 20 13.8307 20 14.4444V15.5555C20 16.7426 19.5377 17.8587 18.6982 18.6982C17.8587 19.5377 16.7426 20 15.5555 20ZM9.99998 15.5555C9.84628 15.5555 9.69995 15.5243 9.56682 15.4679C9.44262 15.4154 9.3259 15.3392 9.22379 15.2395C9.22375 15.2394 9.22375 15.2394 9.22371 15.2394C9.22297 15.2387 9.22223 15.238 9.2215 15.2372C9.2213 15.2371 9.22107 15.2368 9.22087 15.2366C9.22025 15.2361 9.21971 15.2355 9.21913 15.2349C9.21874 15.2345 9.21839 15.2342 9.218 15.2338C9.21761 15.2334 9.21711 15.2329 9.21676 15.2326C9.21598 15.2318 9.21513 15.2309 9.21435 15.2302L4.76988 10.7856C4.33599 10.3517 4.33599 9.64821 4.76988 9.21428C5.20378 8.78038 5.90736 8.78034 6.34125 9.21428L8.8889 11.7619V1.11112C8.88886 0.497435 9.3863 0 9.99998 0C10.6137 0 11.1111 0.497435 11.1111 1.11112V11.7619L13.6587 9.21428C14.0926 8.78038 14.7963 8.78038 15.2301 9.21428C15.664 9.64817 15.664 10.3517 15.2301 10.7856L10.7856 15.2301C10.7849 15.2309 10.784 15.2317 10.7832 15.2325C10.7828 15.2329 10.7823 15.2334 10.782 15.2337C10.7816 15.2341 10.7813 15.2344 10.7809 15.2348C10.7803 15.2354 10.7797 15.236 10.7792 15.2365C10.779 15.2367 10.7787 15.237 10.7785 15.2371C10.7778 15.2379 10.7771 15.2386 10.7763 15.2393C10.7763 15.2393 10.7763 15.2394 10.7763 15.2394C10.764 15.2513 10.7516 15.2629 10.739 15.2741C10.646 15.3571 10.5423 15.4218 10.4328 15.468C10.4324 15.4682 10.4321 15.4683 10.4317 15.4685C10.4312 15.4686 10.4309 15.4689 10.4305 15.469C10.298 15.5247 10.1526 15.5555 9.99998 15.5555Z" fill=""/>
    </symbol>
    <symbol id="latency" viewBox="0 0 20 20">
        <path d="M3.25117 9.38774C2.83425 9.80466 2.83425 10.4832 3.25117 10.9042C3.66809 11.3211 4.34661 11.3211 4.76762 10.9042C7.65338 8.01843 12.3499 8.01843 15.2356 10.9042C15.4441 11.1126 15.718 11.2189 15.9918 11.2189C16.2657 11.2189 16.5395 11.1126 16.748 10.9042C17.1649 10.4873 17.1649 9.80875 16.748 9.38774C13.0284 5.66405 6.97077 5.66405 3.25117 9.38774Z" fill=""/>
        <path d="M6.1457 12.2818C5.72878 12.6988 5.72878 13.3773 6.1457 13.7983C6.56262 14.2152 7.24114 14.2152 7.66215 13.7983C8.9497 12.5066 11.0507 12.5066 12.3382 13.7983C12.5467 14.0067 12.8205 14.113 13.0944 14.113C13.3683 14.113 13.6421 14.0067 13.8506 13.7983C14.2675 13.3814 14.2675 12.7028 13.8506 12.2859C11.7292 10.1564 8.27118 10.1564 6.1457 12.2818Z" fill=""/>
        <path d="M9.99977 17.5586C10.7876 17.5586 11.4263 16.9199 11.4263 16.1321C11.4263 15.3442 10.7876 14.7056 9.99977 14.7056C9.21192 14.7056 8.57324 15.3442 8.57324 16.1321C8.57324 16.9199 9.21192 17.5586 9.99977 17.5586Z" fill=""/>
        <path d="M19.6873 6.44484C14.345 1.1066 5.65502 1.1066 0.312692 6.44484C-0.104231 6.86176 -0.104231 7.54028 0.312692 7.96129C0.729614 8.37821 1.40813 8.37821 1.82914 7.96129C6.33354 3.45281 13.6665 3.45281 18.1749 7.96129C18.3834 8.16975 18.6573 8.27603 18.9311 8.27603C19.205 8.27603 19.4788 8.16975 19.6873 7.96129C20.1042 7.54437 20.1042 6.86585 19.6873 6.44484Z" fill=""/>
    </symbol>
    <symbol id="apple" viewBox="0 0 17 20">
        <path d="M11.8716 0C10.8418 0.0712298 9.63815 0.730408 8.93672 1.58879C8.29686 2.36749 7.77049 3.52407 7.97572 4.64805C9.10091 4.68306 10.2635 4.00819 10.9372 3.13532C11.5674 2.32282 12.0443 1.17348 11.8716 0Z"/>
        <path d="M15.9405 6.48091C14.9518 5.24103 13.5622 4.52148 12.2499 4.52148C10.5174 4.52148 9.78459 5.35089 8.58093 5.35089C7.33984 5.35089 6.39695 4.5239 4.89871 4.5239C3.42703 4.5239 1.85997 5.42333 0.866378 6.96141C-0.530451 9.12728 -0.291408 13.1995 1.97225 16.668C2.78234 17.9091 3.86407 19.3047 5.27901 19.3168C6.5382 19.3288 6.89315 18.5091 8.59904 18.5006C10.3049 18.491 10.6285 19.3276 11.8853 19.3144C13.3014 19.3035 14.4423 17.757 15.2524 16.5159C15.8331 15.6261 16.0492 15.1782 16.4995 14.1737C13.2242 12.9266 12.699 8.2689 15.9405 6.48091Z"/>
    </symbol>
    <symbol id="android" viewBox="0 0 19 22">
        <path d="M11.4829 22.0007C12.2184 22.0007 12.8599 21.3592 12.8599 20.6236V17.4076H13.7794C14.3312 17.4076 14.6989 17.0398 14.6989 16.4881V7.30273H3.67383V16.4882C3.67383 17.0399 4.04164 17.4077 4.59331 17.4077H5.51288V20.6237C5.51288 21.3593 6.15419 22.0008 6.88994 22.0008C7.62543 22.0008 8.26687 21.3593 8.26687 20.6237V17.4077H10.1059V20.6237C10.1058 21.3592 10.7473 22.0007 11.4829 22.0007Z"/>
        <path d="M16.9952 16.4882C17.7308 16.4882 18.3722 15.8468 18.3722 15.1112V8.67919C18.3722 7.94748 17.7308 7.30273 16.9952 7.30273C16.2596 7.30273 15.6182 7.94752 15.6182 8.67919V15.1112C15.6182 15.8467 16.2595 16.4882 16.9952 16.4882Z"/>
        <path d="M1.37693 16.4882C2.11259 16.4882 2.75399 15.8468 2.75399 15.1112V8.67919C2.75399 7.94748 2.11268 7.30273 1.37693 7.30273C0.641349 7.30273 0 7.94752 0 8.67919V15.1112C4.29686e-05 15.8467 0.641349 16.4882 1.37693 16.4882Z"/>
        <path d="M13.5954 0.138735C13.4115 -0.0462449 13.1379 -0.0462449 12.9541 0.138735L11.7208 1.36785L11.6639 1.42466C10.9327 1.05848 10.1128 0.875603 9.1998 0.873841C9.19533 0.873841 9.19091 0.873712 9.18644 0.873712H9.18631C9.18167 0.873712 9.17742 0.873841 9.17282 0.873841C8.25987 0.875603 7.44002 1.05848 6.70883 1.42466L6.65181 1.36785L5.41857 0.138735C5.23462 -0.0462449 4.96108 -0.0462449 4.77726 0.138735C4.59331 0.322683 4.59331 0.595706 4.77726 0.779525L5.9702 1.97268C5.5858 2.22933 5.23724 2.54339 4.93414 2.9026C4.20849 3.76275 3.74559 4.88221 3.68195 6.09513C3.68135 6.10776 3.6801 6.12022 3.67954 6.13285C3.67563 6.21544 3.67383 6.29845 3.67383 6.38181H14.6988C14.6988 6.2985 14.6969 6.21548 14.6931 6.13285C14.6925 6.12022 14.6913 6.10776 14.6905 6.09513C14.627 4.88221 14.164 3.7627 13.4384 2.90269C13.1354 2.54347 12.7867 2.22941 12.4023 1.97276L13.5954 0.779611C13.7794 0.595706 13.7794 0.322726 13.5954 0.138735ZM6.88814 4.77638C6.50774 4.77638 6.19931 4.46799 6.19931 4.08755C6.19931 3.7071 6.50769 3.39872 6.88814 3.39872C7.26854 3.39872 7.57697 3.7071 7.57697 4.08755C7.57697 4.46799 7.26854 4.77638 6.88814 4.77638ZM11.4845 4.77638C11.1041 4.77638 10.7957 4.46799 10.7957 4.08755C10.7957 3.7071 11.104 3.39872 11.4845 3.39872C11.8649 3.39872 12.1733 3.7071 12.1733 4.08755C12.1733 4.46799 11.8649 4.77638 11.4845 4.77638Z"/>
    </symbol>
    <symbol id="chevron" viewBox="0 0 24 24">
        <path d="M12 7.99591C11.8684 7.99515 11.7379 8.02037 11.6161 8.07014C11.4943 8.1199 11.3834 8.19323 11.29 8.28591L5.29 14.2859C5.1017 14.4742 4.99591 14.7296 4.99591 14.9959C4.99591 15.2622 5.1017 15.5176 5.29 15.7059C5.47831 15.8942 5.7337 16 6 16C6.2663 16 6.5217 15.8942 6.71 15.7059L12 10.4059L17.29 15.6959C17.4813 15.8597 17.7274 15.9453 17.9791 15.9356C18.2307 15.9259 18.4695 15.8216 18.6476 15.6435C18.8257 15.4654 18.93 15.2266 18.9397 14.975C18.9494 14.7233 18.8638 14.4772 18.7 14.2859L12.7 8.28591C12.5137 8.10116 12.2623 7.99701 12 7.99591Z" fill=""/>
    </symbol>
    <symbol id="rating" viewBox="0 0 20 20">
        <path d="M19.4413 9.4893C19.9481 8.99551 20.127 8.27078 19.9082 7.59828C19.6899 6.92551 19.1192 6.44438 18.419 6.34262L14.0952 5.71438C13.8757 5.68234 13.6861 5.54457 13.588 5.34582L11.6543 1.42754C11.3413 0.793359 10.7073 0.399414 9.99997 0.399414C9.29262 0.399414 8.65868 0.793359 8.34559 1.42754L6.41196 5.34578C6.31383 5.54461 6.12419 5.68238 5.90504 5.71434L1.58106 6.34258C0.880748 6.44437 0.310084 6.92551 0.0918414 7.59793C-0.127026 8.27078 0.0518414 8.99555 0.558521 9.48918L3.68735 12.5393C3.84606 12.694 3.91848 12.9168 3.8811 13.135L3.14235 17.4418C3.02297 18.1391 3.30419 18.8304 3.87626 19.2459C4.44844 19.6617 5.19297 19.7155 5.81938 19.3865L9.68665 17.3532C9.88282 17.2502 10.1171 17.2502 10.3131 17.3531L14.1806 19.3865C14.807 19.7156 15.5516 19.6617 16.1238 19.2459C16.6958 18.8304 16.977 18.1391 16.8577 17.4418L16.1189 13.1352C16.0815 12.9168 16.1539 12.694 16.3127 12.5392L19.4413 9.4893Z" fill="#FFD700"/>
    </symbol>
</svg>