<svg display="none" xmlns="http://www.w3.org/2000/svg" aria-hidden="true"
    style="position: absolute; width: 0; height: 0; overflow: hidden;" version="1.1">
    <symbol id="telegram" viewBox="0 0 21 18">
        <path
            d="M19.1273 0.152561C16.3701 1.29436 4.54795 6.19134 1.28138 7.52608C-0.909375 8.381 0.373005 9.18246 0.373005 9.18246C0.373005 9.18246 2.243 9.82354 3.84592 10.3045C5.44884 10.7854 6.30376 10.251 6.30376 10.251L13.8374 5.17494C16.5089 3.3584 15.8678 4.8544 15.2267 5.49548C13.8374 6.88478 11.54 9.07532 9.61653 10.8386C8.76161 11.5866 9.18906 12.2279 9.56307 12.5485C10.9524 13.7239 14.7458 16.1283 14.9597 16.2887C16.0885 17.0877 18.3087 18.2381 18.6464 15.8078L19.9823 7.41916C20.4097 4.58732 20.8372 1.9691 20.8906 1.2211C21.0508 -0.595439 19.1273 0.152561 19.1273 0.152561Z"
            fill="#0B1217" />
    </symbol>
    <symbol id="arrow-right" viewBox="0 0 17 15">
        <path
            d="M16.7283 6.41088L10.589 0.271445C10.4137 0.0961943 10.1802 0 9.9311 0C9.68177 0 9.44833 0.0963325 9.27308 0.271445L8.71568 0.828985C8.54057 1.00396 8.44409 1.23767 8.44409 1.48687C8.44409 1.73592 8.54057 1.97751 8.71568 2.15249L12.2973 5.74194H0.918407C0.405371 5.74194 0 6.14358 0 6.65676V7.44497C0 7.95815 0.405371 8.40028 0.918407 8.40028H12.3379L8.71582 12.0098C8.5407 12.185 8.44423 12.4124 8.44423 12.6616C8.44423 12.9105 8.5407 13.1412 8.71582 13.3163L9.27322 13.872C9.44847 14.0473 9.68191 14.1428 9.93124 14.1428C10.1803 14.1428 10.4139 14.046 10.5891 13.8708L16.7284 7.73148C16.9041 7.55568 17.0007 7.321 17 7.07153C17.0006 6.82123 16.9041 6.58641 16.7283 6.41088Z"
            fill="#0B1217" />
    </symbol>
    <symbol id="flag-en" viewBox="0 0 24 24">
        <path
            d="M12 24C18.6274 24 24 18.6274 24 12C24 5.37258 18.6274 0 12 0C5.37258 0 0 5.37258 0 12C0 18.6274 5.37258 24 12 24Z"
            fill="#F0F0F0" />
        <path d="M2.47934 4.69531C1.53673 5.9217 0.825969 7.33522 0.412109 8.8708H6.65483L2.47934 4.69531Z"
            fill="#0052B4" />
        <path d="M23.5864 8.87075C23.1725 7.33522 22.4617 5.9217 21.5191 4.69531L17.3438 8.87075H23.5864Z"
            fill="#0052B4" />
        <path d="M0.412109 15.1309C0.826016 16.6664 1.53678 18.0799 2.47934 19.3063L6.65469 15.1309H0.412109Z"
            fill="#0052B4" />
        <path d="M19.3043 2.48134C18.078 1.53873 16.6645 0.827969 15.1289 0.414062V6.65673L19.3043 2.48134Z"
            fill="#0052B4" />
        <path d="M4.69336 21.5191C5.91975 22.4617 7.33327 23.1725 8.8688 23.5864V17.3438L4.69336 21.5191Z"
            fill="#0052B4" />
        <path d="M8.86875 0.414062C7.33322 0.827969 5.9197 1.53873 4.69336 2.4813L8.86875 6.65669V0.414062Z"
            fill="#0052B4" />
        <path d="M15.1289 23.5864C16.6644 23.1725 18.078 22.4617 19.3043 21.5191L15.1289 17.3438V23.5864Z"
            fill="#0052B4" />
        <path d="M17.3438 15.1309L21.5191 19.3063C22.4617 18.08 23.1725 16.6664 23.5864 15.1309H17.3438Z"
            fill="#0052B4" />
        <path
            d="M23.8984 10.4348H13.5653H13.5652V0.101578C13.0529 0.034875 12.5305 0 12 0C11.4694 0 10.9471 0.034875 10.4348 0.101578V10.4347V10.4348H0.101578C0.034875 10.9471 0 11.4695 0 12C0 12.5306 0.034875 13.0529 0.101578 13.5652H10.4347H10.4348V23.8984C10.9471 23.9651 11.4694 24 12 24C12.5305 24 13.0529 23.9652 13.5652 23.8984V13.5653V13.5652H23.8984C23.9651 13.0529 24 12.5306 24 12C24 11.4695 23.9651 10.9471 23.8984 10.4348Z"
            fill="#D80027" />
        <path
            d="M15.1299 15.1302L20.4847 20.485C20.731 20.2388 20.9659 19.9814 21.1901 19.7146L16.6056 15.1301H15.1299V15.1302Z"
            fill="#D80027" />
        <path
            d="M8.86951 15.1301H8.86941L3.51465 20.4849C3.76084 20.7312 4.01823 20.9661 4.28504 21.1903L8.86951 16.6057V15.1301Z"
            fill="#D80027" />
        <path
            d="M8.87073 8.86936V8.86926L3.51592 3.5144C3.26964 3.76059 3.0347 4.01798 2.81055 4.28479L7.39506 8.86931L8.87073 8.86936Z"
            fill="#D80027" />
        <path
            d="M15.1299 8.87078L20.4847 3.51588C20.2386 3.26959 19.9812 3.03466 19.7144 2.81055L15.1299 7.39506V8.87078Z"
            fill="#D80027" />
    </symbol>
    <symbol id="arrow-bottom" viewBox="0 0 11 6">
        <path
            d="M5.20494 6.00307C5.30364 6.00364 5.40149 5.98472 5.49287 5.9474C5.58425 5.91007 5.66736 5.85508 5.73744 5.78557L10.2374 1.28557C10.3787 1.14434 10.458 0.952795 10.458 0.753069C10.458 0.553342 10.3787 0.361796 10.2374 0.220569C10.0962 0.079341 9.90467 -4.83747e-08 9.70494 -6.58354e-08C9.50521 -8.3296e-08 9.31367 0.0793409 9.17244 0.220569L5.20494 4.19557L1.23744 0.228068C1.09396 0.105198 0.909409 0.0409934 0.720652 0.0482843C0.531895 0.0555751 0.35284 0.133825 0.219269 0.267396C0.085698 0.400967 0.00744971 0.580021 0.000158829 0.768778C-0.00713205 0.957535 0.0570714 1.14209 0.179941 1.28557L4.67994 5.78557C4.81964 5.92413 5.00818 6.00224 5.20494 6.00307Z"
            fill="#FFD700" />
    </symbol>
    <symbol id="upload" viewBox="0 0 20 20">
        <path d="M15.5555 20H4.44443C3.25736 20 2.14127 19.5377 1.30177 18.6982C0.462309 17.8588 0 16.7427 0 15.5555V14.4444C0 13.8307 0.497435 13.3332 1.11112 13.3332C1.7248 13.3332 2.22224 13.8307 2.22224 14.4444V15.5555C2.22224 16.1491 2.45341 16.7071 2.87306 17.1268C3.29283 17.5466 3.85085 17.7778 4.44443 17.7778H15.5555C16.1491 17.7778 16.7071 17.5466 17.1268 17.1268C17.5466 16.7071 17.7778 16.149 17.7778 15.5555V14.4444C17.7778 13.8307 18.2752 13.3332 18.8888 13.3332C19.5025 13.3332 20 13.8307 20 14.4444V15.5555C20 16.7426 19.5377 17.8587 18.6982 18.6982C17.8587 19.5377 16.7426 20 15.5555 20ZM9.99998 0C9.84628 0 9.69995 0.0312055 9.56682 0.0876017C9.44262 0.140078 9.3259 0.216308 9.22379 0.31602L9.2215 0.318271L9.21913 0.3206L9.218 0.321726L9.21676 0.322928L9.21435 0.325336L4.76988 4.76984C4.33599 5.20374 4.33599 5.90728 4.76988 6.34121C5.20378 6.77511 5.90736 6.77515 6.34125 6.34121L8.8889 3.79356V14.4444C8.88886 15.0581 9.3863 15.5555 9.99998 15.5555C10.6137 15.5555 11.1111 15.0581 11.1111 14.4444V3.7936L13.6587 6.34121C14.0926 6.77511 14.7963 6.77511 15.2301 6.34121C15.664 5.90732 15.664 5.20374 15.2301 4.76984L10.7856 0.325413L10.7832 0.323007L10.782 0.321803L10.7809 0.320678L10.7792 0.31897L10.7763 0.316175C10.7641 0.30426 10.7516 0.292616 10.739 0.28136C10.646 0.198376 10.5423 0.133674 10.4328 0.0874863L10.4317 0.087019L10.4305 0.0865145C10.298 0.0307393 10.1526 0 9.99998 0Z" fill=""/>
    </symbol>
    <symbol id="download" viewBox="0 0 20 20">
      <path d="M15.5555 20H4.44443C3.25736 20 2.14127 19.5377 1.30177 18.6982C0.462309 17.8588 0 16.7427 0 15.5555V14.4444C0 13.8307 0.497435 13.3332 1.11112 13.3332C1.7248 13.3332 2.22224 13.8307 2.22224 14.4444V15.5555C2.22224 16.1491 2.45341 16.7071 2.87306 17.1268C3.29283 17.5466 3.85085 17.7778 4.44443 17.7778H15.5555C16.1491 17.7778 16.7071 17.5466 17.1268 17.1268C17.5466 16.7071 17.7778 16.149 17.7778 15.5555V14.4444C17.7778 13.8307 18.2752 13.3332 18.8888 13.3332C19.5025 13.3332 20 13.8307 20 14.4444V15.5555C20 16.7426 19.5377 17.8587 18.6982 18.6982C17.8587 19.5377 16.7426 20 15.5555 20ZM9.99998 15.5555C9.84628 15.5555 9.69995 15.5243 9.56682 15.4679C9.44262 15.4154 9.3259 15.3392 9.22379 15.2395C9.22375 15.2394 9.22375 15.2394 9.22371 15.2394C9.22297 15.2387 9.22223 15.238 9.2215 15.2372C9.2213 15.2371 9.22107 15.2368 9.22087 15.2366C9.22025 15.2361 9.21971 15.2355 9.21913 15.2349C9.21874 15.2345 9.21839 15.2342 9.218 15.2338C9.21761 15.2334 9.21711 15.2329 9.21676 15.2326C9.21598 15.2318 9.21513 15.2309 9.21435 15.2302L4.76988 10.7856C4.33599 10.3517 4.33599 9.64821 4.76988 9.21428C5.20378 8.78038 5.90736 8.78034 6.34125 9.21428L8.8889 11.7619V1.11112C8.88886 0.497435 9.3863 0 9.99998 0C10.6137 0 11.1111 0.497435 11.1111 1.11112V11.7619L13.6587 9.21428C14.0926 8.78038 14.7963 8.78038 15.2301 9.21428C15.664 9.64817 15.664 10.3517 15.2301 10.7856L10.7856 15.2301C10.7849 15.2309 10.784 15.2317 10.7832 15.2325C10.7828 15.2329 10.7823 15.2334 10.782 15.2337C10.7816 15.2341 10.7813 15.2344 10.7809 15.2348C10.7803 15.2354 10.7797 15.236 10.7792 15.2365C10.779 15.2367 10.7787 15.237 10.7785 15.2371C10.7778 15.2379 10.7771 15.2386 10.7763 15.2393C10.7763 15.2393 10.7763 15.2394 10.7763 15.2394C10.764 15.2513 10.7516 15.2629 10.739 15.2741C10.646 15.3571 10.5423 15.4218 10.4328 15.468C10.4324 15.4682 10.4321 15.4683 10.4317 15.4685C10.4312 15.4686 10.4309 15.4689 10.4305 15.469C10.298 15.5247 10.1526 15.5555 9.99998 15.5555Z" fill=""/>
    </symbol>
    <symbol id="latency" viewBox="0 0 20 20">
      <path d="M3.25117 9.38774C2.83425 9.80466 2.83425 10.4832 3.25117 10.9042C3.66809 11.3211 4.34661 11.3211 4.76762 10.9042C7.65338 8.01843 12.3499 8.01843 15.2356 10.9042C15.4441 11.1126 15.718 11.2189 15.9918 11.2189C16.2657 11.2189 16.5395 11.1126 16.748 10.9042C17.1649 10.4873 17.1649 9.80875 16.748 9.38774C13.0284 5.66405 6.97077 5.66405 3.25117 9.38774Z" fill=""/>
      <path d="M6.1457 12.2818C5.72878 12.6988 5.72878 13.3773 6.1457 13.7983C6.56262 14.2152 7.24114 14.2152 7.66215 13.7983C8.9497 12.5066 11.0507 12.5066 12.3382 13.7983C12.5467 14.0067 12.8205 14.113 13.0944 14.113C13.3683 14.113 13.6421 14.0067 13.8506 13.7983C14.2675 13.3814 14.2675 12.7028 13.8506 12.2859C11.7292 10.1564 8.27118 10.1564 6.1457 12.2818Z" fill=""/>
      <path d="M9.99977 17.5586C10.7876 17.5586 11.4263 16.9199 11.4263 16.1321C11.4263 15.3442 10.7876 14.7056 9.99977 14.7056C9.21192 14.7056 8.57324 15.3442 8.57324 16.1321C8.57324 16.9199 9.21192 17.5586 9.99977 17.5586Z" fill=""/>
      <path d="M19.6873 6.44484C14.345 1.1066 5.65502 1.1066 0.312692 6.44484C-0.104231 6.86176 -0.104231 7.54028 0.312692 7.96129C0.729614 8.37821 1.40813 8.37821 1.82914 7.96129C6.33354 3.45281 13.6665 3.45281 18.1749 7.96129C18.3834 8.16975 18.6573 8.27603 18.9311 8.27603C19.205 8.27603 19.4788 8.16975 19.6873 7.96129C20.1042 7.54437 20.1042 6.86585 19.6873 6.44484Z" fill=""/>
    </symbol>
</svg>