<svg display="none" xmlns="http://www.w3.org/2000/svg" aria-hidden="true"
    style="position: absolute; width: 0; height: 0; overflow: hidden;" version="1.1">
    <symbol id="telegram" viewBox="0 0 21 18">
        <path
            d="M19.1273 0.152561C16.3701 1.29436 4.54795 6.19134 1.28138 7.52608C-0.909375 8.381 0.373005 9.18246 0.373005 9.18246C0.373005 9.18246 2.243 9.82354 3.84592 10.3045C5.44884 10.7854 6.30376 10.251 6.30376 10.251L13.8374 5.17494C16.5089 3.3584 15.8678 4.8544 15.2267 5.49548C13.8374 6.88478 11.54 9.07532 9.61653 10.8386C8.76161 11.5866 9.18906 12.2279 9.56307 12.5485C10.9524 13.7239 14.7458 16.1283 14.9597 16.2887C16.0885 17.0877 18.3087 18.2381 18.6464 15.8078L19.9823 7.41916C20.4097 4.58732 20.8372 1.9691 20.8906 1.2211C21.0508 -0.595439 19.1273 0.152561 19.1273 0.152561Z"
            fill="#0B1217" />
    </symbol>
    <symbol id="arrow-right" viewBox="0 0 17 15">
        <path
            d="M16.7283 6.41088L10.589 0.271445C10.4137 0.0961943 10.1802 0 9.9311 0C9.68177 0 9.44833 0.0963325 9.27308 0.271445L8.71568 0.828985C8.54057 1.00396 8.44409 1.23767 8.44409 1.48687C8.44409 1.73592 8.54057 1.97751 8.71568 2.15249L12.2973 5.74194H0.918407C0.405371 5.74194 0 6.14358 0 6.65676V7.44497C0 7.95815 0.405371 8.40028 0.918407 8.40028H12.3379L8.71582 12.0098C8.5407 12.185 8.44423 12.4124 8.44423 12.6616C8.44423 12.9105 8.5407 13.1412 8.71582 13.3163L9.27322 13.872C9.44847 14.0473 9.68191 14.1428 9.93124 14.1428C10.1803 14.1428 10.4139 14.046 10.5891 13.8708L16.7284 7.73148C16.9041 7.55568 17.0007 7.321 17 7.07153C17.0006 6.82123 16.9041 6.58641 16.7283 6.41088Z"
            fill="#0B1217" />
    </symbol>
    <symbol id="arrow-bottom" viewBox="0 0 18 18">
        <path d="M8.73535 1.19762C8.24804 1.19762 7.853 1.59266 7.853 2.07998L7.85301 16.2221C7.85301 16.7095 8.24799 17.1044 8.73531 17.1044C9.22263 17.1044 9.6177 16.7094 9.6177 16.2221L9.6177 2.07998C9.6177 1.59265 9.22266 1.19762 8.73535 1.19762Z" fill="#FFD700"/>
        <path d="M0.623411 8.11107C0.278842 8.45563 0.278825 9.01432 0.62341 9.3589L8.11046 16.8459C8.45503 17.1905 9.01372 17.1905 9.35829 16.8459L16.8453 9.3589C17.1899 9.01432 17.1899 8.45563 16.8453 8.11107C16.5007 7.76641 15.9421 7.76648 15.5975 8.11107L8.73438 14.9742L1.87125 8.11107C1.52666 7.76648 0.968063 7.76641 0.623411 8.11107Z" fill="#FFD700"/>
    </symbol>
    <symbol id="show-all" viewBox="0 0 18 18">
      <path d="M8.99693 12.0001C9.09564 12.0007 9.19348 11.9818 9.28486 11.9445C9.37624 11.9071 9.45935 11.8521 9.52943 11.7826L14.0294 7.28264C14.1707 7.14141 14.25 6.94987 14.25 6.75014C14.25 6.55041 14.1707 6.35887 14.0294 6.21764C13.8882 6.07641 13.6967 5.99707 13.4969 5.99707C13.2972 5.99707 13.1057 6.07641 12.9644 6.21764L8.99693 10.1926L5.02943 6.22514C4.88596 6.10227 4.7014 6.03806 4.51264 6.04535C4.32389 6.05265 4.14483 6.1309 4.01126 6.26447C3.87769 6.39804 3.79944 6.57709 3.79215 6.76585C3.78486 6.9546 3.84906 7.13916 3.97193 7.28264L8.47193 11.7826C8.61163 11.9212 8.80018 11.9993 8.99693 12.0001Z" fill="#FFD700"/>
    </symbol>
    <symbol id="flag-en" viewBox="0 0 24 24">
        <path
            d="M12 24C18.6274 24 24 18.6274 24 12C24 5.37258 18.6274 0 12 0C5.37258 0 0 5.37258 0 12C0 18.6274 5.37258 24 12 24Z"
            fill="#F0F0F0" />
        <path d="M2.47934 4.69531C1.53673 5.9217 0.825969 7.33522 0.412109 8.8708H6.65483L2.47934 4.69531Z"
            fill="#0052B4" />
        <path d="M23.5864 8.87075C23.1725 7.33522 22.4617 5.9217 21.5191 4.69531L17.3438 8.87075H23.5864Z"
            fill="#0052B4" />
        <path d="M0.412109 15.1309C0.826016 16.6664 1.53678 18.0799 2.47934 19.3063L6.65469 15.1309H0.412109Z"
            fill="#0052B4" />
        <path d="M19.3043 2.48134C18.078 1.53873 16.6645 0.827969 15.1289 0.414062V6.65673L19.3043 2.48134Z"
            fill="#0052B4" />
        <path d="M4.69336 21.5191C5.91975 22.4617 7.33327 23.1725 8.8688 23.5864V17.3438L4.69336 21.5191Z"
            fill="#0052B4" />
        <path d="M8.86875 0.414062C7.33322 0.827969 5.9197 1.53873 4.69336 2.4813L8.86875 6.65669V0.414062Z"
            fill="#0052B4" />
        <path d="M15.1289 23.5864C16.6644 23.1725 18.078 22.4617 19.3043 21.5191L15.1289 17.3438V23.5864Z"
            fill="#0052B4" />
        <path d="M17.3438 15.1309L21.5191 19.3063C22.4617 18.08 23.1725 16.6664 23.5864 15.1309H17.3438Z"
            fill="#0052B4" />
        <path
            d="M23.8984 10.4348H13.5653H13.5652V0.101578C13.0529 0.034875 12.5305 0 12 0C11.4694 0 10.9471 0.034875 10.4348 0.101578V10.4347V10.4348H0.101578C0.034875 10.9471 0 11.4695 0 12C0 12.5306 0.034875 13.0529 0.101578 13.5652H10.4347H10.4348V23.8984C10.9471 23.9651 11.4694 24 12 24C12.5305 24 13.0529 23.9652 13.5652 23.8984V13.5653V13.5652H23.8984C23.9651 13.0529 24 12.5306 24 12C24 11.4695 23.9651 10.9471 23.8984 10.4348Z"
            fill="#D80027" />
        <path
            d="M15.1299 15.1302L20.4847 20.485C20.731 20.2388 20.9659 19.9814 21.1901 19.7146L16.6056 15.1301H15.1299V15.1302Z"
            fill="#D80027" />
        <path
            d="M8.86951 15.1301H8.86941L3.51465 20.4849C3.76084 20.7312 4.01823 20.9661 4.28504 21.1903L8.86951 16.6057V15.1301Z"
            fill="#D80027" />
        <path
            d="M8.87073 8.86936V8.86926L3.51592 3.5144C3.26964 3.76059 3.0347 4.01798 2.81055 4.28479L7.39506 8.86931L8.87073 8.86936Z"
            fill="#D80027" />
        <path
            d="M15.1299 8.87078L20.4847 3.51588C20.2386 3.26959 19.9812 3.03466 19.7144 2.81055L15.1299 7.39506V8.87078Z"
            fill="#D80027" />
    </symbol>
    <symbol id="upload" viewBox="0 0 20 20">
        <path d="M15.5555 20H4.44443C3.25736 20 2.14127 19.5377 1.30177 18.6982C0.462309 17.8588 0 16.7427 0 15.5555V14.4444C0 13.8307 0.497435 13.3332 1.11112 13.3332C1.7248 13.3332 2.22224 13.8307 2.22224 14.4444V15.5555C2.22224 16.1491 2.45341 16.7071 2.87306 17.1268C3.29283 17.5466 3.85085 17.7778 4.44443 17.7778H15.5555C16.1491 17.7778 16.7071 17.5466 17.1268 17.1268C17.5466 16.7071 17.7778 16.149 17.7778 15.5555V14.4444C17.7778 13.8307 18.2752 13.3332 18.8888 13.3332C19.5025 13.3332 20 13.8307 20 14.4444V15.5555C20 16.7426 19.5377 17.8587 18.6982 18.6982C17.8587 19.5377 16.7426 20 15.5555 20ZM9.99998 0C9.84628 0 9.69995 0.0312055 9.56682 0.0876017C9.44262 0.140078 9.3259 0.216308 9.22379 0.31602L9.2215 0.318271L9.21913 0.3206L9.218 0.321726L9.21676 0.322928L9.21435 0.325336L4.76988 4.76984C4.33599 5.20374 4.33599 5.90728 4.76988 6.34121C5.20378 6.77511 5.90736 6.77515 6.34125 6.34121L8.8889 3.79356V14.4444C8.88886 15.0581 9.3863 15.5555 9.99998 15.5555C10.6137 15.5555 11.1111 15.0581 11.1111 14.4444V3.7936L13.6587 6.34121C14.0926 6.77511 14.7963 6.77511 15.2301 6.34121C15.664 5.90732 15.664 5.20374 15.2301 4.76984L10.7856 0.325413L10.7832 0.323007L10.782 0.321803L10.7809 0.320678L10.7792 0.31897L10.7763 0.316175C10.7641 0.30426 10.7516 0.292616 10.739 0.28136C10.646 0.198376 10.5423 0.133674 10.4328 0.0874863L10.4317 0.087019L10.4305 0.0865145C10.298 0.0307393 10.1526 0 9.99998 0Z" fill=""/>
    </symbol>
    <symbol id="download" viewBox="0 0 20 20">
        <path d="M15.5555 20H4.44443C3.25736 20 2.14127 19.5377 1.30177 18.6982C0.462309 17.8588 0 16.7427 0 15.5555V14.4444C0 13.8307 0.497435 13.3332 1.11112 13.3332C1.7248 13.3332 2.22224 13.8307 2.22224 14.4444V15.5555C2.22224 16.1491 2.45341 16.7071 2.87306 17.1268C3.29283 17.5466 3.85085 17.7778 4.44443 17.7778H15.5555C16.1491 17.7778 16.7071 17.5466 17.1268 17.1268C17.5466 16.7071 17.7778 16.149 17.7778 15.5555V14.4444C17.7778 13.8307 18.2752 13.3332 18.8888 13.3332C19.5025 13.3332 20 13.8307 20 14.4444V15.5555C20 16.7426 19.5377 17.8587 18.6982 18.6982C17.8587 19.5377 16.7426 20 15.5555 20ZM9.99998 15.5555C9.84628 15.5555 9.69995 15.5243 9.56682 15.4679C9.44262 15.4154 9.3259 15.3392 9.22379 15.2395C9.22375 15.2394 9.22375 15.2394 9.22371 15.2394C9.22297 15.2387 9.22223 15.238 9.2215 15.2372C9.2213 15.2371 9.22107 15.2368 9.22087 15.2366C9.22025 15.2361 9.21971 15.2355 9.21913 15.2349C9.21874 15.2345 9.21839 15.2342 9.218 15.2338C9.21761 15.2334 9.21711 15.2329 9.21676 15.2326C9.21598 15.2318 9.21513 15.2309 9.21435 15.2302L4.76988 10.7856C4.33599 10.3517 4.33599 9.64821 4.76988 9.21428C5.20378 8.78038 5.90736 8.78034 6.34125 9.21428L8.8889 11.7619V1.11112C8.88886 0.497435 9.3863 0 9.99998 0C10.6137 0 11.1111 0.497435 11.1111 1.11112V11.7619L13.6587 9.21428C14.0926 8.78038 14.7963 8.78038 15.2301 9.21428C15.664 9.64817 15.664 10.3517 15.2301 10.7856L10.7856 15.2301C10.7849 15.2309 10.784 15.2317 10.7832 15.2325C10.7828 15.2329 10.7823 15.2334 10.782 15.2337C10.7816 15.2341 10.7813 15.2344 10.7809 15.2348C10.7803 15.2354 10.7797 15.236 10.7792 15.2365C10.779 15.2367 10.7787 15.237 10.7785 15.2371C10.7778 15.2379 10.7771 15.2386 10.7763 15.2393C10.7763 15.2393 10.7763 15.2394 10.7763 15.2394C10.764 15.2513 10.7516 15.2629 10.739 15.2741C10.646 15.3571 10.5423 15.4218 10.4328 15.468C10.4324 15.4682 10.4321 15.4683 10.4317 15.4685C10.4312 15.4686 10.4309 15.4689 10.4305 15.469C10.298 15.5247 10.1526 15.5555 9.99998 15.5555Z" fill=""/>
    </symbol>
    <symbol id="latency" viewBox="0 0 20 20">
        <path d="M3.25117 9.38774C2.83425 9.80466 2.83425 10.4832 3.25117 10.9042C3.66809 11.3211 4.34661 11.3211 4.76762 10.9042C7.65338 8.01843 12.3499 8.01843 15.2356 10.9042C15.4441 11.1126 15.718 11.2189 15.9918 11.2189C16.2657 11.2189 16.5395 11.1126 16.748 10.9042C17.1649 10.4873 17.1649 9.80875 16.748 9.38774C13.0284 5.66405 6.97077 5.66405 3.25117 9.38774Z" fill=""/>
        <path d="M6.1457 12.2818C5.72878 12.6988 5.72878 13.3773 6.1457 13.7983C6.56262 14.2152 7.24114 14.2152 7.66215 13.7983C8.9497 12.5066 11.0507 12.5066 12.3382 13.7983C12.5467 14.0067 12.8205 14.113 13.0944 14.113C13.3683 14.113 13.6421 14.0067 13.8506 13.7983C14.2675 13.3814 14.2675 12.7028 13.8506 12.2859C11.7292 10.1564 8.27118 10.1564 6.1457 12.2818Z" fill=""/>
        <path d="M9.99977 17.5586C10.7876 17.5586 11.4263 16.9199 11.4263 16.1321C11.4263 15.3442 10.7876 14.7056 9.99977 14.7056C9.21192 14.7056 8.57324 15.3442 8.57324 16.1321C8.57324 16.9199 9.21192 17.5586 9.99977 17.5586Z" fill=""/>
        <path d="M19.6873 6.44484C14.345 1.1066 5.65502 1.1066 0.312692 6.44484C-0.104231 6.86176 -0.104231 7.54028 0.312692 7.96129C0.729614 8.37821 1.40813 8.37821 1.82914 7.96129C6.33354 3.45281 13.6665 3.45281 18.1749 7.96129C18.3834 8.16975 18.6573 8.27603 18.9311 8.27603C19.205 8.27603 19.4788 8.16975 19.6873 7.96129C20.1042 7.54437 20.1042 6.86585 19.6873 6.44484Z" fill=""/>
    </symbol>
    <symbol id="apple" viewBox="0 0 17 20">
        <path d="M11.8716 0C10.8418 0.0712298 9.63815 0.730408 8.93672 1.58879C8.29686 2.36749 7.77049 3.52407 7.97572 4.64805C9.10091 4.68306 10.2635 4.00819 10.9372 3.13532C11.5674 2.32282 12.0443 1.17348 11.8716 0Z"/>
        <path d="M15.9405 6.48091C14.9518 5.24103 13.5622 4.52148 12.2499 4.52148C10.5174 4.52148 9.78459 5.35089 8.58093 5.35089C7.33984 5.35089 6.39695 4.5239 4.89871 4.5239C3.42703 4.5239 1.85997 5.42333 0.866378 6.96141C-0.530451 9.12728 -0.291408 13.1995 1.97225 16.668C2.78234 17.9091 3.86407 19.3047 5.27901 19.3168C6.5382 19.3288 6.89315 18.5091 8.59904 18.5006C10.3049 18.491 10.6285 19.3276 11.8853 19.3144C13.3014 19.3035 14.4423 17.757 15.2524 16.5159C15.8331 15.6261 16.0492 15.1782 16.4995 14.1737C13.2242 12.9266 12.699 8.2689 15.9405 6.48091Z"/>
    </symbol>
    <symbol id="android" viewBox="0 0 19 22">
        <path d="M11.4829 22.0007C12.2184 22.0007 12.8599 21.3592 12.8599 20.6236V17.4076H13.7794C14.3312 17.4076 14.6989 17.0398 14.6989 16.4881V7.30273H3.67383V16.4882C3.67383 17.0399 4.04164 17.4077 4.59331 17.4077H5.51288V20.6237C5.51288 21.3593 6.15419 22.0008 6.88994 22.0008C7.62543 22.0008 8.26687 21.3593 8.26687 20.6237V17.4077H10.1059V20.6237C10.1058 21.3592 10.7473 22.0007 11.4829 22.0007Z"/>
        <path d="M16.9952 16.4882C17.7308 16.4882 18.3722 15.8468 18.3722 15.1112V8.67919C18.3722 7.94748 17.7308 7.30273 16.9952 7.30273C16.2596 7.30273 15.6182 7.94752 15.6182 8.67919V15.1112C15.6182 15.8467 16.2595 16.4882 16.9952 16.4882Z"/>
        <path d="M1.37693 16.4882C2.11259 16.4882 2.75399 15.8468 2.75399 15.1112V8.67919C2.75399 7.94748 2.11268 7.30273 1.37693 7.30273C0.641349 7.30273 0 7.94752 0 8.67919V15.1112C4.29686e-05 15.8467 0.641349 16.4882 1.37693 16.4882Z"/>
        <path d="M13.5954 0.138735C13.4115 -0.0462449 13.1379 -0.0462449 12.9541 0.138735L11.7208 1.36785L11.6639 1.42466C10.9327 1.05848 10.1128 0.875603 9.1998 0.873841C9.19533 0.873841 9.19091 0.873712 9.18644 0.873712H9.18631C9.18167 0.873712 9.17742 0.873841 9.17282 0.873841C8.25987 0.875603 7.44002 1.05848 6.70883 1.42466L6.65181 1.36785L5.41857 0.138735C5.23462 -0.0462449 4.96108 -0.0462449 4.77726 0.138735C4.59331 0.322683 4.59331 0.595706 4.77726 0.779525L5.9702 1.97268C5.5858 2.22933 5.23724 2.54339 4.93414 2.9026C4.20849 3.76275 3.74559 4.88221 3.68195 6.09513C3.68135 6.10776 3.6801 6.12022 3.67954 6.13285C3.67563 6.21544 3.67383 6.29845 3.67383 6.38181H14.6988C14.6988 6.2985 14.6969 6.21548 14.6931 6.13285C14.6925 6.12022 14.6913 6.10776 14.6905 6.09513C14.627 4.88221 14.164 3.7627 13.4384 2.90269C13.1354 2.54347 12.7867 2.22941 12.4023 1.97276L13.5954 0.779611C13.7794 0.595706 13.7794 0.322726 13.5954 0.138735ZM6.88814 4.77638C6.50774 4.77638 6.19931 4.46799 6.19931 4.08755C6.19931 3.7071 6.50769 3.39872 6.88814 3.39872C7.26854 3.39872 7.57697 3.7071 7.57697 4.08755C7.57697 4.46799 7.26854 4.77638 6.88814 4.77638ZM11.4845 4.77638C11.1041 4.77638 10.7957 4.46799 10.7957 4.08755C10.7957 3.7071 11.104 3.39872 11.4845 3.39872C11.8649 3.39872 12.1733 3.7071 12.1733 4.08755C12.1733 4.46799 11.8649 4.77638 11.4845 4.77638Z"/>
    </symbol>
    <symbol id="chevron" viewBox="0 0 24 24">
        <path d="M12 7.99591C11.8684 7.99515 11.7379 8.02037 11.6161 8.07014C11.4943 8.1199 11.3834 8.19323 11.29 8.28591L5.29 14.2859C5.1017 14.4742 4.99591 14.7296 4.99591 14.9959C4.99591 15.2622 5.1017 15.5176 5.29 15.7059C5.47831 15.8942 5.7337 16 6 16C6.2663 16 6.5217 15.8942 6.71 15.7059L12 10.4059L17.29 15.6959C17.4813 15.8597 17.7274 15.9453 17.9791 15.9356C18.2307 15.9259 18.4695 15.8216 18.6476 15.6435C18.8257 15.4654 18.93 15.2266 18.9397 14.975C18.9494 14.7233 18.8638 14.4772 18.7 14.2859L12.7 8.28591C12.5137 8.10116 12.2623 7.99701 12 7.99591Z" fill=""/>
    </symbol>
    <symbol id="rating" viewBox="0 0 20 20">
        <path d="M19.4413 9.4893C19.9481 8.99551 20.127 8.27078 19.9082 7.59828C19.6899 6.92551 19.1192 6.44438 18.419 6.34262L14.0952 5.71438C13.8757 5.68234 13.6861 5.54457 13.588 5.34582L11.6543 1.42754C11.3413 0.793359 10.7073 0.399414 9.99997 0.399414C9.29262 0.399414 8.65868 0.793359 8.34559 1.42754L6.41196 5.34578C6.31383 5.54461 6.12419 5.68238 5.90504 5.71434L1.58106 6.34258C0.880748 6.44437 0.310084 6.92551 0.0918414 7.59793C-0.127026 8.27078 0.0518414 8.99555 0.558521 9.48918L3.68735 12.5393C3.84606 12.694 3.91848 12.9168 3.8811 13.135L3.14235 17.4418C3.02297 18.1391 3.30419 18.8304 3.87626 19.2459C4.44844 19.6617 5.19297 19.7155 5.81938 19.3865L9.68665 17.3532C9.88282 17.2502 10.1171 17.2502 10.3131 17.3531L14.1806 19.3865C14.807 19.7156 15.5516 19.6617 16.1238 19.2459C16.6958 18.8304 16.977 18.1391 16.8577 17.4418L16.1189 13.1352C16.0815 12.9168 16.1539 12.694 16.3127 12.5392L19.4413 9.4893Z" fill="#FFD700"/>
    </symbol>
    <symbol id="shield-check" viewBox="0 0 16 12">
        <path d="M15.9958 1.34449C15.9963 1.52111 15.9617 1.69606 15.8941 1.85923C15.8265 2.0224 15.7273 2.17054 15.602 2.29509L7.12498 10.7722C6.74366 11.1524 6.22715 11.3659 5.68866 11.3659C5.15018 11.3659 4.63367 11.1524 4.25235 10.7722L0.397133 6.91696C0.271568 6.79228 0.171852 6.64404 0.103704 6.48074C0.0355549 6.31744 0.000314021 6.14229 2.08909e-06 5.96534C-0.000309843 5.78839 0.0343133 5.61312 0.101886 5.44958C0.169459 5.28604 0.268651 5.13745 0.393775 5.01232C0.518899 4.8872 0.667493 4.78801 0.831035 4.72044C0.994576 4.65287 1.16985 4.61825 1.3468 4.61857C1.52375 4.61888 1.6989 4.65412 1.8622 4.72228C2.0255 4.79043 2.17374 4.89015 2.29841 5.01571L5.68866 8.40599L13.7009 0.393806C13.8889 0.205771 14.1284 0.0777154 14.3892 0.0258357C14.65 -0.0260441 14.9203 0.000582762 15.166 0.102348C15.4116 0.204114 15.6216 0.376446 15.7693 0.597549C15.917 0.818652 15.9958 1.07859 15.9958 1.34449Z" fill="#FFD700"/>
    <symbol id="country-in" viewBox="0 0 24 24">
      <path d="M12 24C18.6274 24 24 18.6274 24 12C24 5.37258 18.6274 0 12 0C5.37258 0 0 5.37258 0 12C0 18.6274 5.37258 24 12 24Z" fill="#F0F0F0"/>
      <path d="M11.9998 0C7.24199 0 3.13105 2.77031 1.19043 6.78281H22.8092C20.8686 2.77031 16.7576 0 11.9998 0Z" fill="#FF9811"/>
      <path d="M11.9998 24.0001C16.7576 24.0001 20.8686 21.2298 22.8092 17.2173H1.19043C3.13105 21.2298 7.24199 24.0001 11.9998 24.0001Z" fill="#6DA544"/>
    </symbol>
    <symbol id="country-id" viewBox="0 0 24 24">
      <path d="M12 24C18.6274 24 24 18.6274 24 12C24 5.37258 18.6274 0 12 0C5.37258 0 0 5.37258 0 12C0 18.6274 5.37258 24 12 24Z" fill="#F0F0F0"/>
      <path d="M0 12C0 5.37262 5.37262 0 12 0C18.6274 0 24 5.37262 24 12" fill="#A2001D"/>
    </symbol>
    <symbol id="country-ae" viewBox="0 0 24 24">
      <path d="M12 24C18.6274 24 24 18.6274 24 12C24 5.37258 18.6274 0 12 0C5.37258 0 0 5.37258 0 12C0 18.6274 5.37258 24 12 24Z" fill="#F0F0F0"/>
      <path d="M6.78223 16.1738L7.82571 23.2536C9.12565 23.736 10.5318 23.9999 11.9996 23.9999C17.1591 23.9999 21.5577 20.7434 23.2532 16.1738H6.78223Z" fill="black"/>
      <path d="M6.78223 7.82611L7.82571 0.746297C9.12565 0.263906 10.5318 0 11.9996 0C17.1591 0 21.5577 3.2565 23.2532 7.82611H6.78223Z" fill="#6DA544"/>
      <path d="M0 12.0002C0 17.1598 3.25655 21.5583 7.82611 23.2538V0.746582C3.25655 2.4421 0 6.84061 0 12.0002Z" fill="#A2001D"/>
    </symbol>
    <symbol id="country-br" viewBox="0 0 24 24">
      <path d="M12 24C18.6274 24 24 18.6274 24 12C24 5.37258 18.6274 0 12 0C5.37258 0 0 5.37258 0 12C0 18.6274 5.37258 24 12 24Z" fill="#6DA544"/>
      <path d="M11.9999 4.6958L21.913 12.0001L11.9999 19.3045L2.08691 12.0001L11.9999 4.6958Z" fill="#FFDA44"/>
      <path d="M12.0001 16.174C14.3052 16.174 16.174 14.3052 16.174 12.0001C16.174 9.69489 14.3052 7.82617 12.0001 7.82617C9.69489 7.82617 7.82617 9.69489 7.82617 12.0001C7.82617 14.3052 9.69489 16.174 12.0001 16.174Z" fill="#F0F0F0"/>
      <path d="M9.91276 11.7393C9.18695 11.7393 8.48649 11.8496 7.82715 12.0545C7.85635 14.3345 9.71279 16.1741 11.9997 16.1741C13.4139 16.1741 14.6628 15.4701 15.4178 14.3943C14.1261 12.7773 12.1385 11.7393 9.91276 11.7393Z" fill="#0052B4"/>
      <path d="M16.0962 12.7998C16.1464 12.5408 16.1735 12.2737 16.1735 12.0001C16.1735 9.69484 14.3048 7.82617 11.9997 7.82617C10.2796 7.82617 8.80306 8.86684 8.16406 10.3527C8.72891 10.2356 9.31372 10.174 9.91273 10.174C12.337 10.174 14.5301 11.1817 16.0962 12.7998Z" fill="#0052B4"/>
    </symbol>
    <symbol id="country-ru" viewBox="0 0 24 24">
      <path d="M12 24C18.6274 24 24 18.6274 24 12C24 5.37258 18.6274 0 12 0C5.37258 0 0 5.37258 0 12C0 18.6274 5.37258 24 12 24Z" fill="#F0F0F0"/>
      <path d="M23.2536 16.174C23.736 14.874 24 13.4679 24 12.0001C24 10.5322 23.736 9.12616 23.2536 7.82617H0.746391C0.264047 9.12616 0 10.5322 0 12.0001C0 13.4679 0.264047 14.874 0.746391 16.174L12 17.2174L23.2536 16.174Z" fill="#0052B4"/>
      <path d="M11.9997 23.9999C17.1593 23.9999 21.5578 20.7434 23.2533 16.1738H0.746094C2.44161 20.7434 6.84013 23.9999 11.9997 23.9999Z" fill="#D80027"/>
    </symbol>
    <symbol id="country-cn" viewBox="0 0 24 24">
      <path d="M12 24C18.6274 24 24 18.6274 24 12C24 5.37258 18.6274 0 12 0C5.37258 0 0 5.37258 0 12C0 18.6274 5.37258 24 12 24Z" fill="#D80027"/>
      <path d="M6.56719 7.30273L7.60312 10.4902H10.9547L8.24531 12.4637L9.28125 15.6512L6.56719 13.6824L3.85313 15.6512L4.89375 12.4637L2.17969 10.4902H5.53125L6.56719 7.30273Z" fill="#FFDA44"/>
      <path d="M14.227 18.5857L13.4348 17.6107L12.2629 18.0654L12.9426 17.0107L12.1504 16.0311L13.3645 16.3545L14.0488 15.2998L14.1145 16.5561L15.3332 16.8795L14.1566 17.3295L14.227 18.5857Z" fill="#FFDA44"/>
      <path d="M15.802 15.7264L16.177 14.5264L15.1504 13.7998L16.4066 13.7811L16.777 12.5811L17.1848 13.7717L18.441 13.7576L17.4332 14.5076L17.8363 15.6982L16.8098 14.9717L15.802 15.7264Z" fill="#FFDA44"/>
      <path d="M17.9246 8.80771L17.3715 9.9374L18.2715 10.814L17.0293 10.6358L16.4762 11.7608L16.2605 10.5233L15.0137 10.3452L16.1293 9.75928L15.9137 8.51709L16.8137 9.39365L17.9246 8.80771Z" fill="#FFDA44"/>
      <path d="M14.2592 5.38574L14.1654 6.63731L15.3326 7.11074L14.1092 7.41074L14.0201 8.66699L13.3592 7.59824L12.1357 7.89824L12.9467 6.9373L12.2811 5.87324L13.4482 6.34668L14.2592 5.38574Z" fill="#FFDA44"/>
    </symbol>
    <symbol id="country-sa" viewBox="0 0 24 24">
      <path d="M12 24C18.6274 24 24 18.6274 24 12C24 5.37258 18.6274 0 12 0C5.37258 0 0 5.37258 0 12C0 18.6274 5.37258 24 12 24Z" fill="#6DA544"/>
      <path d="M6.78223 14.3481C6.78223 15.2126 7.48301 15.9133 8.34743 15.9133H13.0431C13.0431 16.6337 13.6271 17.2177 14.3474 17.2177H15.9126C16.633 17.2177 17.217 16.6337 17.217 15.9133V14.3481H6.78223Z" fill="#F0F0F0"/>
      <path d="M17.3482 6.78271V10.4349C17.3482 11.0103 16.8801 11.4784 16.3047 11.4784V13.0436C17.7431 13.0436 18.9134 11.8733 18.9134 10.4349V6.78271H17.3482Z" fill="#F0F0F0"/>
      <path d="M6.1304 10.4349C6.1304 11.0103 5.6623 11.4784 5.08691 11.4784V13.0436C6.52537 13.0436 7.6956 11.8733 7.6956 10.4349V6.78271H6.1304V10.4349Z" fill="#F0F0F0"/>
      <path d="M15 6.78271H16.5652V10.4349H15V6.78271Z" fill="#F0F0F0"/>
      <path d="M12.6524 8.86968C12.6524 9.01354 12.5354 9.13054 12.3915 9.13054C12.2477 9.13054 12.1307 9.0135 12.1307 8.86968V6.78271H10.5655V8.86968C10.5655 9.01354 10.4484 9.13054 10.3046 9.13054C10.1608 9.13054 10.0438 9.0135 10.0438 8.86968V6.78271H8.47852V8.86968C8.47852 9.87661 9.2977 10.6958 10.3046 10.6958C10.6924 10.6958 11.052 10.5739 11.3481 10.3669C11.6441 10.5739 12.0038 10.6958 12.3916 10.6958C12.4697 10.6958 12.5465 10.6903 12.622 10.6807C12.5111 11.1377 12.0995 11.4784 11.609 11.4784V13.0436C13.0474 13.0436 14.2177 11.8733 14.2177 10.4349V8.86968V6.78271H12.6525V8.86968H12.6524Z" fill="#F0F0F0"/>
      <path d="M8.47852 11.4785H10.8263V13.0437H8.47852V11.4785Z" fill="#F0F0F0"/>
    </symbol>
    <symbol id="country-tr" viewBox="0 0 24 24">
      <path d="M12 24C18.6274 24 24 18.6274 24 12C24 5.37258 18.6274 0 12 0C5.37258 0 0 5.37258 0 12C0 18.6274 5.37258 24 12 24Z" fill="#D80027"/>
      <path d="M11.5087 9.80566L12.4933 11.1625L14.0879 10.6454L13.1017 12.0011L14.0862 13.3578L12.4922 12.8388L11.5061 14.1944L11.5071 12.5181L9.91309 11.9991L11.5077 11.4821L11.5087 9.80566Z" fill="#F0F0F0"/>
      <path d="M8.82198 15.3914C6.94905 15.3914 5.43067 13.873 5.43067 12.0001C5.43067 10.1272 6.94905 8.6088 8.82198 8.6088C9.40595 8.6088 9.95542 8.7565 10.4351 9.01642C9.68256 8.28039 8.65333 7.82617 7.51764 7.82617C5.21242 7.82617 3.34375 9.69489 3.34375 12.0001C3.34375 14.3052 5.21247 16.174 7.51764 16.174C8.65342 16.174 9.68261 15.7197 10.4351 14.9837C9.95542 15.2437 9.40595 15.3914 8.82198 15.3914Z" fill="#F0F0F0"/>
    </symbol>
    <symbol id="country-us" viewBox="0 0 24 24">
      <path d="M12 24C18.6274 24 24 18.6274 24 12C24 5.37258 18.6274 0 12 0C5.37258 0 0 5.37258 0 12C0 18.6274 5.37258 24 12 24Z" fill="#F0F0F0"/>
      <path d="M11.4775 12.0001H23.9993C23.9993 10.917 23.8549 9.86774 23.5859 8.86963H11.4775V12.0001Z" fill="#D80027"/>
      <path d="M11.4775 5.73934H22.238C21.5034 4.54065 20.5642 3.48114 19.4691 2.60889H11.4775V5.73934Z" fill="#D80027"/>
      <path d="M12.0001 24.0003C14.8243 24.0003 17.4201 23.0242 19.4699 21.3916H4.53027C6.58012 23.0242 9.17591 24.0003 12.0001 24.0003Z" fill="#D80027"/>
      <path d="M1.76098 18.2608H22.2384C22.8281 17.2985 23.2855 16.2467 23.5863 15.1304H0.413086C0.713883 16.2467 1.17124 17.2985 1.76098 18.2608Z" fill="#D80027"/>
      <path d="M5.55863 1.87397H6.65217L5.63498 2.61295L6.02353 3.80869L5.00639 3.0697L3.98925 3.80869L4.32487 2.7757C3.42928 3.52172 2.64431 4.39575 1.99744 5.36963H2.34783L1.70034 5.84002C1.59947 6.0083 1.50272 6.17925 1.41 6.35273L1.71919 7.30434L1.14234 6.88523C0.998953 7.18903 0.867797 7.49967 0.749906 7.81678L1.09055 8.86528H2.34783L1.33064 9.60427L1.71919 10.8L0.702047 10.061L0.0927656 10.5037C0.0317812 10.9939 0 11.4932 0 12H12C12 5.37262 12 4.59131 12 0C9.62944 0 7.41961 0.687656 5.55863 1.87397ZM6.02353 10.8L5.00639 10.061L3.98925 10.8L4.3778 9.60427L3.36061 8.86528H4.61789L5.00639 7.66955L5.39489 8.86528H6.65217L5.63498 9.60427L6.02353 10.8ZM5.63498 6.10861L6.02353 7.30434L5.00639 6.56536L3.98925 7.30434L4.3778 6.10861L3.36061 5.36963H4.61789L5.00639 4.17389L5.39489 5.36963H6.65217L5.63498 6.10861ZM10.3279 10.8L9.31073 10.061L8.29359 10.8L8.68214 9.60427L7.66495 8.86528H8.92223L9.31073 7.66955L9.69923 8.86528H10.9565L9.93933 9.60427L10.3279 10.8ZM9.93933 6.10861L10.3279 7.30434L9.31073 6.56536L8.29359 7.30434L8.68214 6.10861L7.66495 5.36963H8.92223L9.31073 4.17389L9.69923 5.36963H10.9565L9.93933 6.10861ZM9.93933 2.61295L10.3279 3.80869L9.31073 3.0697L8.29359 3.80869L8.68214 2.61295L7.66495 1.87397H8.92223L9.31073 0.678234L9.69923 1.87397H10.9565L9.93933 2.61295Z" fill="#0052B4"/>
      <path d="M37.994 18.788C37.058 18.788 36.236 18.578 35.528 18.158C34.82 17.726 34.262 17.132 33.854 16.376C33.458 15.608 33.26 14.726 33.26 13.73V5.612H34.79V13.802C34.79 14.474 34.91 15.08 35.15 15.62C35.39 16.148 35.744 16.568 36.212 16.88C36.692 17.18 37.286 17.33 37.994 17.33C38.702 17.33 39.296 17.18 39.776 16.88C40.256 16.568 40.616 16.148 40.856 15.62C41.096 15.08 41.216 14.474 41.216 13.802V5.612H42.746V13.73C42.746 14.726 42.554 15.608 42.17 16.376C41.798 17.132 41.258 17.726 40.55 18.158C39.842 18.578 38.99 18.788 37.994 18.788ZM45.4819 18.5V9.32H46.9399V10.67H47.0119C47.2519 10.226 47.6419 9.842 48.1819 9.518C48.7339 9.194 49.3339 9.032 49.9819 9.032C51.1099 9.032 51.9559 9.362 52.5199 10.022C53.0959 10.67 53.3839 11.534 53.3839 12.614V18.5H51.8539V12.848C51.8539 11.96 51.6379 11.336 51.2059 10.976C50.7859 10.604 50.2399 10.418 49.5679 10.418C49.0639 10.418 48.6199 10.562 48.2359 10.85C47.8519 11.126 47.5519 11.486 47.3359 11.93C47.1199 12.374 47.0119 12.842 47.0119 13.334V18.5H45.4819ZM55.8965 18.5V9.32H57.4265V18.5H55.8965ZM56.6525 7.628C56.3525 7.628 56.0945 7.52 55.8785 7.304C55.6625 7.088 55.5545 6.83 55.5545 6.53C55.5545 6.218 55.6625 5.96 55.8785 5.756C56.0945 5.54 56.3525 5.432 56.6525 5.432C56.9645 5.432 57.2225 5.54 57.4265 5.756C57.6425 5.96 57.7505 6.218 57.7505 6.53C57.7505 6.83 57.6425 7.088 57.4265 7.304C57.2225 7.52 56.9645 7.628 56.6525 7.628ZM59.3523 10.706V9.32H61.0623V10.706H59.3523ZM63.5283 18.644C62.7603 18.644 62.1423 18.416 61.6743 17.96C61.2063 17.492 60.9723 16.868 60.9723 16.088V6.728H62.5023V15.71C62.5023 16.226 62.6043 16.61 62.8083 16.862C63.0243 17.102 63.3423 17.222 63.7623 17.222C63.9543 17.222 64.1343 17.198 64.3023 17.15C64.4703 17.09 64.6323 17.012 64.7883 16.916V18.41C64.5963 18.482 64.3983 18.536 64.1943 18.572C63.9903 18.62 63.7683 18.644 63.5283 18.644ZM62.4123 10.706V9.32H64.7523V10.706H62.4123ZM70.5639 18.788C69.6759 18.788 68.8839 18.578 68.1879 18.158C67.5039 17.738 66.9639 17.162 66.5679 16.43C66.1839 15.698 65.9919 14.864 65.9919 13.928C65.9919 13.052 66.1719 12.242 66.5319 11.498C66.9039 10.754 67.4199 10.16 68.0799 9.716C68.7519 9.26 69.5379 9.032 70.4379 9.032C71.3499 9.032 72.1299 9.236 72.7779 9.644C73.4379 10.04 73.9419 10.592 74.2899 11.3C74.6499 12.008 74.8299 12.818 74.8299 13.73C74.8299 13.814 74.8239 13.898 74.8119 13.982C74.8119 14.066 74.8059 14.138 74.7939 14.198H66.8919V12.938H73.2099C73.1979 12.686 73.1379 12.416 73.0299 12.128C72.9339 11.828 72.7719 11.552 72.5439 11.3C72.3279 11.036 72.0459 10.826 71.6979 10.67C71.3619 10.502 70.9419 10.418 70.4379 10.418C69.8379 10.418 69.3159 10.574 68.8719 10.886C68.4399 11.186 68.1039 11.6 67.8639 12.128C67.6359 12.656 67.5219 13.256 67.5219 13.928C67.5219 14.708 67.6719 15.356 67.9719 15.872C68.2719 16.388 68.6559 16.772 69.1239 17.024C69.6039 17.276 70.1019 17.402 70.6179 17.402C71.2899 17.402 71.8419 17.246 72.2739 16.934C72.7179 16.61 73.0719 16.214 73.3359 15.746L74.6319 16.376C74.2719 17.072 73.7559 17.648 73.0839 18.104C72.4119 18.56 71.5719 18.788 70.5639 18.788ZM80.8337 18.788C80.0057 18.788 79.2557 18.578 78.5837 18.158C77.9237 17.738 77.4017 17.162 77.0177 16.43C76.6337 15.698 76.4417 14.858 76.4417 13.91C76.4417 12.962 76.6337 12.122 77.0177 11.39C77.4017 10.658 77.9237 10.082 78.5837 9.662C79.2557 9.242 80.0057 9.032 80.8337 9.032C81.3257 9.032 81.7757 9.11 82.1837 9.266C82.5917 9.422 82.9457 9.626 83.2457 9.878C83.5577 10.13 83.7977 10.4 83.9657 10.688H84.0377L83.9657 9.41V5.612H85.4957V18.5H84.0377V17.15H83.9657C83.7977 17.426 83.5577 17.69 83.2457 17.942C82.9457 18.194 82.5917 18.398 82.1837 18.554C81.7757 18.71 81.3257 18.788 80.8337 18.788ZM80.9957 17.402C81.5237 17.402 82.0157 17.264 82.4717 16.988C82.9397 16.7 83.3177 16.298 83.6057 15.782C83.8937 15.254 84.0377 14.63 84.0377 13.91C84.0377 13.19 83.8937 12.572 83.6057 12.056C83.3177 11.528 82.9397 11.126 82.4717 10.85C82.0157 10.562 81.5237 10.418 80.9957 10.418C80.4677 10.418 79.9697 10.562 79.5017 10.85C79.0457 11.126 78.6737 11.528 78.3857 12.056C78.0977 12.572 77.9537 13.19 77.9537 13.91C77.9537 14.618 78.0977 15.236 78.3857 15.764C78.6737 16.292 79.0457 16.7 79.5017 16.988C79.9697 17.264 80.4677 17.402 80.9957 17.402ZM96.5303 18.788C95.9063 18.788 95.2883 18.656 94.6763 18.392C94.0643 18.128 93.5243 17.738 93.0563 17.222C92.5883 16.706 92.2463 16.064 92.0303 15.296L93.4883 14.702C93.6923 15.446 94.0643 16.07 94.6043 16.574C95.1443 17.078 95.7983 17.33 96.5663 17.33C97.0463 17.33 97.4843 17.246 97.8803 17.078C98.2883 16.898 98.6123 16.64 98.8523 16.304C99.1043 15.968 99.2303 15.56 99.2303 15.08C99.2303 14.648 99.1223 14.282 98.9063 13.982C98.7023 13.682 98.3903 13.418 97.9703 13.19C97.5503 12.95 97.0343 12.722 96.4223 12.506L95.6123 12.218C95.2523 12.086 94.8863 11.93 94.5143 11.75C94.1543 11.558 93.8183 11.33 93.5063 11.066C93.2063 10.79 92.9663 10.466 92.7863 10.094C92.6063 9.71 92.5163 9.26 92.5163 8.744C92.5163 8.12 92.6843 7.55 93.0203 7.034C93.3563 6.518 93.8183 6.104 94.4063 5.792C94.9943 5.48 95.6723 5.324 96.4403 5.324C97.2443 5.324 97.9163 5.474 98.4563 5.774C99.0083 6.062 99.4403 6.41 99.7523 6.818C100.076 7.214 100.292 7.58 100.4 7.916L98.9783 8.528C98.9063 8.276 98.7683 8.018 98.5643 7.754C98.3603 7.478 98.0843 7.25 97.7363 7.07C97.4003 6.878 96.9743 6.782 96.4583 6.782C96.0383 6.782 95.6423 6.866 95.2703 7.034C94.9103 7.202 94.6163 7.436 94.3883 7.736C94.1723 8.024 94.0643 8.36 94.0643 8.744C94.0643 9.284 94.2803 9.71 94.7123 10.022C95.1443 10.334 95.7263 10.616 96.4583 10.868L97.3043 11.156C97.6883 11.288 98.0783 11.45 98.4743 11.642C98.8823 11.834 99.2603 12.08 99.6083 12.38C99.9563 12.68 100.238 13.052 100.454 13.496C100.67 13.928 100.778 14.45 100.778 15.062C100.778 15.722 100.646 16.292 100.382 16.772C100.13 17.24 99.7943 17.624 99.3743 17.924C98.9543 18.224 98.4923 18.44 97.9883 18.572C97.4963 18.716 97.0103 18.788 96.5303 18.788ZM101.846 10.706V9.32H103.556V10.706H101.846ZM106.022 18.644C105.254 18.644 104.636 18.416 104.168 17.96C103.7 17.492 103.466 16.868 103.466 16.088V6.728H104.996V15.71C104.996 16.226 105.098 16.61 105.302 16.862C105.518 17.102 105.836 17.222 106.256 17.222C106.448 17.222 106.628 17.198 106.796 17.15C106.964 17.09 107.126 17.012 107.282 16.916V18.41C107.09 18.482 106.892 18.536 106.688 18.572C106.484 18.62 106.262 18.644 106.022 18.644ZM104.906 10.706V9.32H107.246V10.706H104.906ZM112.398 18.788C111.714 18.788 111.114 18.656 110.598 18.392C110.082 18.128 109.674 17.768 109.374 17.312C109.086 16.844 108.942 16.316 108.942 15.728C108.942 15.056 109.116 14.492 109.464 14.036C109.812 13.568 110.28 13.22 110.868 12.992C111.456 12.752 112.104 12.632 112.812 12.632C113.22 12.632 113.598 12.668 113.946 12.74C114.294 12.8 114.594 12.878 114.846 12.974C115.11 13.058 115.308 13.142 115.44 13.226V12.668C115.44 11.972 115.194 11.42 114.702 11.012C114.21 10.604 113.61 10.4 112.902 10.4C112.398 10.4 111.924 10.514 111.48 10.742C111.048 10.958 110.706 11.264 110.454 11.66L109.302 10.796C109.542 10.436 109.842 10.124 110.202 9.86C110.562 9.596 110.97 9.392 111.426 9.248C111.894 9.104 112.386 9.032 112.902 9.032C114.15 9.032 115.128 9.362 115.836 10.022C116.544 10.682 116.898 11.57 116.898 12.686V18.5H115.44V17.186H115.368C115.212 17.45 114.99 17.708 114.702 17.96C114.414 18.2 114.072 18.398 113.676 18.554C113.292 18.71 112.866 18.788 112.398 18.788ZM112.542 17.438C113.07 17.438 113.55 17.306 113.982 17.042C114.426 16.778 114.78 16.424 115.044 15.98C115.308 15.536 115.44 15.05 115.44 14.522C115.164 14.33 114.816 14.174 114.396 14.054C113.988 13.934 113.538 13.874 113.046 13.874C112.17 13.874 111.528 14.054 111.12 14.414C110.712 14.774 110.508 15.218 110.508 15.746C110.508 16.25 110.7 16.658 111.084 16.97C111.468 17.282 111.954 17.438 112.542 17.438ZM118.421 10.706V9.32H120.131V10.706H118.421ZM122.597 18.644C121.829 18.644 121.211 18.416 120.743 17.96C120.275 17.492 120.041 16.868 120.041 16.088V6.728H121.571V15.71C121.571 16.226 121.673 16.61 121.877 16.862C122.093 17.102 122.411 17.222 122.831 17.222C123.023 17.222 123.203 17.198 123.371 17.15C123.539 17.09 123.701 17.012 123.857 16.916V18.41C123.665 18.482 123.467 18.536 123.263 18.572C123.059 18.62 122.837 18.644 122.597 18.644ZM121.481 10.706V9.32H123.821V10.706H121.481ZM129.633 18.788C128.745 18.788 127.953 18.578 127.257 18.158C126.573 17.738 126.033 17.162 125.637 16.43C125.253 15.698 125.061 14.864 125.061 13.928C125.061 13.052 125.241 12.242 125.601 11.498C125.973 10.754 126.489 10.16 127.149 9.716C127.821 9.26 128.607 9.032 129.507 9.032C130.419 9.032 131.199 9.236 131.847 9.644C132.507 10.04 133.011 10.592 133.359 11.3C133.719 12.008 133.899 12.818 133.899 13.73C133.899 13.814 133.893 13.898 133.881 13.982C133.881 14.066 133.875 14.138 133.863 14.198H125.961V12.938H132.279C132.267 12.686 132.207 12.416 132.099 12.128C132.003 11.828 131.841 11.552 131.613 11.3C131.397 11.036 131.115 10.826 130.767 10.67C130.431 10.502 130.011 10.418 129.507 10.418C128.907 10.418 128.385 10.574 127.941 10.886C127.509 11.186 127.173 11.6 126.933 12.128C126.705 12.656 126.591 13.256 126.591 13.928C126.591 14.708 126.741 15.356 127.041 15.872C127.341 16.388 127.725 16.772 128.193 17.024C128.673 17.276 129.171 17.402 129.687 17.402C130.359 17.402 130.911 17.246 131.343 16.934C131.787 16.61 132.141 16.214 132.405 15.746L133.701 16.376C133.341 17.072 132.825 17.648 132.153 18.104C131.481 18.56 130.641 18.788 129.633 18.788ZM139.201 18.788C138.517 18.788 137.911 18.68 137.383 18.464C136.867 18.236 136.435 17.936 136.087 17.564C135.751 17.18 135.499 16.766 135.331 16.322L136.699 15.71C136.939 16.262 137.287 16.688 137.743 16.988C138.199 17.288 138.721 17.438 139.309 17.438C139.873 17.438 140.341 17.324 140.713 17.096C141.097 16.868 141.289 16.532 141.289 16.088C141.289 15.812 141.211 15.584 141.055 15.404C140.899 15.212 140.671 15.05 140.371 14.918C140.071 14.786 139.705 14.666 139.273 14.558L138.157 14.27C137.725 14.15 137.317 13.982 136.933 13.766C136.549 13.55 136.237 13.274 135.997 12.938C135.769 12.59 135.655 12.17 135.655 11.678C135.655 11.126 135.817 10.652 136.141 10.256C136.465 9.86 136.891 9.56 137.419 9.356C137.947 9.14 138.511 9.032 139.111 9.032C139.639 9.032 140.131 9.11 140.587 9.266C141.055 9.41 141.463 9.632 141.811 9.932C142.159 10.22 142.423 10.58 142.603 11.012L141.271 11.624C141.043 11.168 140.737 10.85 140.353 10.67C139.969 10.49 139.543 10.4 139.075 10.4C138.571 10.4 138.133 10.514 137.761 10.742C137.389 10.958 137.203 11.258 137.203 11.642C137.203 12.026 137.353 12.314 137.653 12.506C137.965 12.698 138.343 12.854 138.787 12.974L140.119 13.316C141.019 13.544 141.697 13.886 142.153 14.342C142.609 14.786 142.837 15.332 142.837 15.98C142.837 16.556 142.675 17.054 142.351 17.474C142.027 17.894 141.589 18.218 141.037 18.446C140.485 18.674 139.873 18.788 139.201 18.788Z" fill="white"/>
    </symbol>
    <symbol id="country-qa" viewBox="0 0 24 24">
      <path d="M12 24C18.6274 24 24 18.6274 24 12C24 5.37258 18.6274 0 12 0C5.37258 0 0 5.37258 0 12C0 18.6274 5.37258 24 12 24Z" fill="#F0F0F0"/>
      <path d="M23.9997 12C23.9997 5.37262 18.627 0 11.9997 0C9.65216 0 7.46244 0.674766 5.61284 1.83989L8.24314 2.95744L4.69531 4.46484L8.24314 5.9722L4.69531 7.47952L8.24314 8.98678L4.69531 10.4939L8.24314 12.0008L4.69531 13.5082L8.24314 15.0154L4.69531 16.5225L8.24314 18.0297L4.69531 19.537L8.24314 21.0441L5.61402 22.161C7.46337 23.3256 9.65262 24 11.9997 24C18.627 24 23.9997 18.6274 23.9997 12Z" fill="#751A46"/>
    </symbol>
    <symbol id="country-vn" viewBox="0 0 24 24">
      <path d="M12 24C18.6274 24 24 18.6274 24 12C24 5.37258 18.6274 0 12 0C5.37258 0 0 5.37258 0 12C0 18.6274 5.37258 24 12 24Z" fill="#D80027"/>
      <path d="M11.9995 6.26074L13.2946 10.2465H17.4855L14.095 12.7098L15.39 16.6955L11.9995 14.2322L8.60908 16.6955L9.90414 12.7098L6.51367 10.2465H10.7045L11.9995 6.26074Z" fill="#FFDA44"/>
    </symbol>
    <symbol id="country-ph" viewBox="0 0 24 24">
      <path d="M12 24C18.6274 24 24 18.6274 24 12C24 5.37258 18.6274 0 12 0C5.37258 0 0 5.37258 0 12C0 18.6274 5.37258 24 12 24Z" fill="#F0F0F0"/>
      <path d="M12 0V12L3.51465 20.4853C5.68623 22.6568 8.68623 24 12 24C18.6273 24 24 18.6274 24 12C24 5.37262 12 0 12 0Z" fill="#D80027"/>
      <path d="M12 0C8.68623 0 5.68623 1.34316 3.51465 3.51469C6.45887 6.45891 7.50404 7.50412 12 12H24C24 5.37262 18.6273 0 12 0Z" fill="#0052B4"/>
      <path d="M8.21723 12.0003L6.75173 11.3109L7.53215 9.8916L5.94074 10.1961L5.73909 8.58838L4.63059 9.77075L3.52213 8.58838L3.32043 10.1961L1.72907 9.89155L2.50949 11.3109L1.04395 12.0003L2.50949 12.6896L1.72907 14.1089L3.32057 13.8045L3.52209 15.4122L4.63059 14.2298L5.73909 15.4122L5.94074 13.8045L7.53205 14.109L6.75168 12.6897L8.21723 12.0003Z" fill="#FFDA44"/>
      <path d="M3.20082 4.6958L3.68851 5.3775L4.48749 5.12443L3.98977 5.79886L4.47746 6.48057L3.68218 6.21568L3.18451 6.89007L3.19074 6.05194L2.39551 5.787L3.19463 5.53393L3.20082 4.6958Z" fill="#FFDA44"/>
      <path d="M3.20082 17.1104L3.68851 17.7921L4.48749 17.5389L3.98977 18.2134L4.47746 18.8951L3.68218 18.6302L3.18451 19.3046L3.19074 18.4665L2.39551 18.2016L3.19463 17.9485L3.20082 17.1104Z" fill="#FFDA44"/>
      <path d="M10.1568 10.9028L9.66915 11.5845L8.87012 11.3314L9.36784 12.0058L8.88015 12.6876L9.67543 12.4227L10.1731 13.0971L10.1669 12.259L10.9621 11.994L10.163 11.741L10.1568 10.9028Z" fill="#FFDA44"/>
    </symbol>
    <symbol id="country-mx" viewBox="0 0 24 24">
      <path d="M12 24C18.6274 24 24 18.6274 24 12C24 5.37258 18.6274 0 12 0C5.37258 0 0 5.37258 0 12C0 18.6274 5.37258 24 12 24Z" fill="#F0F0F0"/>
      <path d="M24.0004 12.0002C24.0004 7.24267 21.2317 3.13192 17.2178 1.19092V22.8094C21.2317 20.8685 24.0004 16.7577 24.0004 12.0002Z" fill="#D80027"/>
      <path d="M0 12.0002C0 16.7577 2.76867 20.8685 6.78263 22.8095V1.19092C2.76867 3.13192 0 7.24267 0 12.0002Z" fill="#6DA544"/>
      <path d="M8.86914 12C8.86914 13.7289 10.2707 15.1305 11.9996 15.1305C13.7285 15.1305 15.13 13.7289 15.13 12V10.9565H8.86914V12Z" fill="#6DA544"/>
      <path d="M16.174 9.91311H13.0436C13.0436 9.33683 12.5764 8.86963 12.0001 8.86963C11.4238 8.86963 10.9566 9.33683 10.9566 9.91311H7.82617C7.82617 10.4894 8.32816 10.9566 8.90439 10.9566H8.86966C8.86966 11.5329 9.33681 12.0001 9.91314 12.0001C9.91314 12.5764 10.3803 13.0436 10.9566 13.0436H13.0436C13.6199 13.0436 14.0871 12.5764 14.0871 12.0001C14.6634 12.0001 15.1306 11.5329 15.1306 10.9566H15.0958C15.6721 10.9566 16.174 10.4894 16.174 9.91311Z" fill="#FF9811"/>
    </symbol>
    <symbol id="country-gb" viewBox="0 0 24 24">
      <path d="M12 24C18.6274 24 24 18.6274 24 12C24 5.37258 18.6274 0 12 0C5.37258 0 0 5.37258 0 12C0 18.6274 5.37258 24 12 24Z" fill="#F0F0F0"/>
      <path d="M2.48032 4.69434C1.53771 5.92073 0.826945 7.33424 0.413086 8.86982H6.6558L2.48032 4.69434Z" fill="#0052B4"/>
      <path d="M23.5864 8.86977C23.1725 7.33424 22.4617 5.92073 21.5191 4.69434L17.3438 8.86977H23.5864Z" fill="#0052B4"/>
      <path d="M0.413086 15.1309C0.826992 16.6664 1.53776 18.0799 2.48032 19.3063L6.65566 15.1309H0.413086Z" fill="#0052B4"/>
      <path d="M19.3053 2.48086C18.0789 1.53825 16.6655 0.82748 15.1299 0.413574V6.65625L19.3053 2.48086Z" fill="#0052B4"/>
      <path d="M4.69434 21.5196C5.92073 22.4622 7.33424 23.173 8.86977 23.5869V17.3442L4.69434 21.5196Z" fill="#0052B4"/>
      <path d="M8.86973 0.413574C7.3342 0.82748 5.92068 1.53825 4.69434 2.48081L8.86973 6.6562V0.413574Z" fill="#0052B4"/>
      <path d="M15.1299 23.5869C16.6654 23.173 18.0789 22.4622 19.3053 21.5196L15.1299 17.3442V23.5869Z" fill="#0052B4"/>
      <path d="M17.3438 15.1309L21.5191 19.3063C22.4617 18.08 23.1725 16.6664 23.5864 15.1309H17.3438Z" fill="#0052B4"/>
      <path d="M23.8984 10.4348H13.5653H13.5653V0.101578C13.0529 0.034875 12.5305 0 12 0C11.4694 0 10.9471 0.034875 10.4348 0.101578V10.4347V10.4347H0.101578C0.034875 10.9471 0 11.4695 0 12C0 12.5306 0.034875 13.0529 0.101578 13.5652H10.4347H10.4347V23.8984C10.9471 23.9651 11.4694 24 12 24C12.5305 24 13.0529 23.9652 13.5652 23.8984V13.5653V13.5653H23.8984C23.9651 13.0529 24 12.5306 24 12C24 11.4695 23.9651 10.9471 23.8984 10.4348Z" fill="#D80027"/>
      <path d="M15.1309 15.1304L20.4857 20.4852C20.732 20.239 20.9669 19.9817 21.191 19.7148L16.6066 15.1304H15.1309V15.1304Z" fill="#D80027"/>
      <path d="M8.86951 15.1304H8.86941L3.51465 20.4851C3.76084 20.7314 4.01823 20.9664 4.28504 21.1905L8.86951 16.6059V15.1304Z" fill="#D80027"/>
      <path d="M8.86976 8.8696V8.86951L3.51495 3.51465C3.26866 3.76084 3.03373 4.01823 2.80957 4.28504L7.39409 8.86955L8.86976 8.8696Z" fill="#D80027"/>
      <path d="M15.1309 8.86981L20.4857 3.5149C20.2395 3.26862 19.9821 3.03368 19.7153 2.80957L15.1309 7.39409V8.86981Z" fill="#D80027"/>
    </symbol>
    <symbol id="country-de" viewBox="0 0 24 24">
      <path d="M0.746094 16.1738C2.44161 20.7434 6.84013 23.9999 11.9997 23.9999C17.1593 23.9999 21.5578 20.7434 23.2533 16.1738L11.9997 15.1304L0.746094 16.1738Z" fill="#FFDA44"/>
      <path d="M11.9997 0C6.84013 0 2.44161 3.2565 0.746094 7.82611L11.9997 8.86955L23.2533 7.82606C21.5578 3.2565 17.1593 0 11.9997 0Z" fill="black"/>
      <path d="M0.746391 7.82617C0.264047 9.12616 0 10.5322 0 12.0001C0 13.4679 0.264047 14.874 0.746391 16.174H23.2537C23.736 14.874 24 13.4679 24 12.0001C24 10.5322 23.736 9.12616 23.2536 7.82617H0.746391Z" fill="#D80027"/>
    </symbol>
    <symbol id="country-sg" viewBox="0 0 24 24">
      <path d="M12 24C18.6274 24 24 18.6274 24 12C24 5.37258 18.6274 0 12 0C5.37258 0 0 5.37258 0 12C0 18.6274 5.37258 24 12 24Z" fill="#F0F0F0"/>
      <path d="M0 12C0 5.37263 5.37262 0 12 0C18.6274 0 24 5.37263 24 12" fill="#D80027"/>
      <path d="M7.30451 6.26101C7.30451 4.51267 8.53324 3.05214 10.1741 2.69378C9.92187 2.63875 9.66026 2.60889 9.39143 2.60889C7.37435 2.60889 5.73926 4.24398 5.73926 6.26106C5.73926 8.27814 7.37435 9.91323 9.39143 9.91323C9.66016 9.91323 9.92182 9.88337 10.1741 9.82829C8.53324 9.46993 7.30451 8.0094 7.30451 6.26101Z" fill="#F0F0F0"/>
      <path d="M12.0005 2.86963L12.2595 3.66674H13.0977L12.4195 4.15944L12.6786 4.95655L12.0005 4.46394L11.3224 4.95655L11.5814 4.15944L10.9033 3.66674H11.7414L12.0005 2.86963Z" fill="#F0F0F0"/>
      <path d="M9.96737 4.43506L10.2264 5.23221H11.0645L10.3864 5.72487L10.6455 6.52198L9.96737 6.02937L9.28918 6.52198L9.54826 5.72487L8.87012 5.23221H9.70829L9.96737 4.43506Z" fill="#F0F0F0"/>
      <path d="M14.0337 4.43506L14.2928 5.23221H15.1309L14.4527 5.72487L14.7118 6.52198L14.0337 6.02937L13.3556 6.52198L13.6146 5.72487L12.9365 5.23221H13.7746L14.0337 4.43506Z" fill="#F0F0F0"/>
      <path d="M13.2505 6.78271L13.5095 7.57987H14.3476L13.6695 8.07253L13.9286 8.86964L13.2505 8.37703L12.5724 8.86964L12.8314 8.07253L12.1533 7.57987H12.9914L13.2505 6.78271Z" fill="#F0F0F0"/>
      <path d="M10.7495 6.78271L11.0085 7.57987H11.8468L11.1686 8.07253L11.4277 8.86964L10.7495 8.37703L10.0714 8.86964L10.3304 8.07253L9.65234 7.57987H10.4905L10.7495 6.78271Z" fill="#F0F0F0"/>
    </symbol>
    <symbol id="country-my" viewBox="0 0 24 24">
      <path d="M12 24C18.6274 24 24 18.6274 24 12C24 5.37258 18.6274 0 12 0C5.37258 0 0 5.37258 0 12C0 18.6274 5.37258 24 12 24Z" fill="#F0F0F0"/>
      <path d="M11.4775 12.0001H23.9993C23.9993 10.9169 23.8549 9.86779 23.5859 8.86963H11.4775V12.0001Z" fill="#D80027"/>
      <path d="M11.4775 5.73934H22.238C21.5034 4.54065 20.5643 3.48114 19.4691 2.60889H11.4775V5.73934Z" fill="#D80027"/>
      <path d="M12.0001 24.0003C14.8243 24.0003 17.4201 23.0242 19.47 21.3916H4.53027C6.58016 23.0242 9.17596 24.0003 12.0001 24.0003Z" fill="#D80027"/>
      <path d="M1.76098 18.2608H22.2384C22.8281 17.2986 23.2855 16.2467 23.5863 15.1304H0.413086C0.713883 16.2467 1.17124 17.2986 1.76098 18.2608Z" fill="#D80027"/>
      <path d="M12 12C12 5.37262 12 4.59131 12 0C5.37262 0 0 5.37262 0 12H12Z" fill="#0052B4"/>
      <path d="M7.98001 10.2718C6.34116 10.2718 5.01263 8.94327 5.01263 7.30447C5.01263 5.66567 6.34121 4.33709 7.98001 4.33709C8.49099 4.33709 8.97179 4.46633 9.39155 4.69377C8.73305 4.04984 7.83249 3.65234 6.8387 3.65234C4.82171 3.65234 3.18652 5.28748 3.18652 7.30452C3.18652 9.32155 4.82171 10.9567 6.8387 10.9567C7.83249 10.9567 8.73305 10.5592 9.39155 9.91527C8.97179 10.1426 8.49104 10.2718 7.98001 10.2718Z" fill="#FFDA44"/>
      <path d="M8.81647 5.21729L9.3433 6.31894L10.533 6.04407L10.0002 7.14277L10.9571 7.90153L9.76578 8.17008L9.76911 9.39122L8.81647 8.62725L7.86378 9.39122L7.86706 8.17008L6.67578 7.90153L7.63259 7.14277L7.09977 6.04407L8.28959 6.31894L8.81647 5.21729Z" fill="#FFDA44"/>
    </symbol>
    <symbol id="country-hk" viewBox="0 0 24 24">
      <path d="M12 24C18.6274 24 24 18.6274 24 12C24 5.37258 18.6274 0 12 0C5.37258 0 0 5.37258 0 12C0 18.6274 5.37258 24 12 24Z" fill="#D80027"/>
      <path d="M13.2387 9.07837C12.966 10.2127 12.4815 9.99637 12.2437 10.9856C10.8429 10.6488 9.98021 9.24023 10.317 7.83937C10.6537 6.43861 12.0624 5.57592 13.4632 5.91271C12.9876 7.89117 13.4827 8.06386 13.2387 9.07837Z" fill="#F0F0F0"/>
      <path d="M9.60395 9.91871C10.5985 10.5286 10.243 10.9226 11.1103 11.4545C10.3571 12.6827 8.75092 13.0678 7.5227 12.3146C6.29453 11.5615 5.90936 9.95522 6.66255 8.72705C8.3972 9.79074 8.71431 9.37322 9.60395 9.91871Z" fill="#F0F0F0"/>
      <path d="M9.28044 13.6358C10.1678 12.8784 10.4326 13.3382 11.2065 12.6777C12.1419 13.7735 12.0117 15.4202 10.916 16.3555C9.82016 17.2909 8.17353 17.1607 7.23828 16.065C8.78581 14.7439 8.4867 14.3132 9.28044 13.6358Z" fill="#F0F0F0"/>
      <path d="M12.7145 15.0924C12.2683 14.0144 12.7875 13.9046 12.3984 12.9646C13.7296 12.4136 15.2555 13.0462 15.8065 14.3774C16.3574 15.7086 15.7248 17.2344 14.3936 17.7854C13.6156 15.9053 13.1136 16.0566 12.7145 15.0924Z" fill="#F0F0F0"/>
      <path d="M15.1618 12.2758C13.9987 12.367 14.0545 11.8392 13.0403 11.9188C12.9277 10.4826 14.0009 9.22678 15.4372 9.11405C16.8734 9.00159 18.1292 10.0747 18.2418 11.511C16.2132 11.67 16.202 12.1943 15.1618 12.2758Z" fill="#F0F0F0"/>
    </symbol>
    <symbol id="country-ch" viewBox="0 0 24 24">
      <path d="M12 24C18.6274 24 24 18.6274 24 12C24 5.37258 18.6274 0 12 0C5.37258 0 0 5.37258 0 12C0 18.6274 5.37258 24 12 24Z" fill="#D80027"/>
      <path d="M18.261 9.9132H14.0871V5.73926H9.91315V9.9132H5.73926V14.0871H9.91315V18.261H14.0871V14.0871H18.261V9.9132Z" fill="#F0F0F0"/>
    </symbol>
    <symbol id="country-nl" viewBox="0 0 24 24">
      <path d="M12 24C18.6274 24 24 18.6274 24 12C24 5.37258 18.6274 0 12 0C5.37258 0 0 5.37258 0 12C0 18.6274 5.37258 24 12 24Z" fill="#F0F0F0"/>
      <path d="M11.9997 0C6.84013 0 2.44161 3.2565 0.746094 7.82611H23.2534C21.5578 3.2565 17.1593 0 11.9997 0Z" fill="#A2001D"/>
      <path d="M11.9997 23.9999C17.1593 23.9999 21.5578 20.7434 23.2533 16.1738H0.746094C2.44161 20.7434 6.84013 23.9999 11.9997 23.9999Z" fill="#0052B4"/>
    </symbol>
    <symbol id="country-fr" viewBox="0 0 24 24">
      <path d="M12 24C18.6274 24 24 18.6274 24 12C24 5.37258 18.6274 0 12 0C5.37258 0 0 5.37258 0 12C0 18.6274 5.37258 24 12 24Z" fill="#F0F0F0"/>
      <path d="M23.9999 12.0002C23.9999 6.84061 20.7434 2.4421 16.1738 0.746582V23.2538C20.7434 21.5583 23.9999 17.1598 23.9999 12.0002Z" fill="#D80027"/>
      <path d="M0 12.0002C0 17.1598 3.25655 21.5583 7.82611 23.2538V0.746582C3.25655 2.4421 0 6.84061 0 12.0002Z" fill="#0052B4"/>
    </symbol>
    <symbol id="country-ca" viewBox="0 0 24 24">
      <path d="M12 24C18.6274 24 24 18.6274 24 12C24 5.37258 18.6274 0 12 0C5.37258 0 0 5.37258 0 12C0 18.6274 5.37258 24 12 24Z" fill="#fffff"/>
      <path d="M24.0004 12.0002C24.0004 7.24267 21.2317 3.13192 17.2178 1.19092V22.8094C21.2317 20.8685 24.0004 16.7577 24.0004 12.0002Z" fill="#D80027"/>
      <path d="M0 12.0002C0 16.7577 2.76867 20.8685 6.78263 22.8095V1.19092C2.76867 3.13192 0 7.24267 0 12.0002Z" fill="#D80027"/>
      <path d="M14.087 13.5655L16.174 12.522L15.1305 12.0003V10.9568L13.0435 12.0003L14.087 9.91335H13.0435L12.0001 8.34814L10.9566 9.91335H9.91309L10.9566 12.0003L8.86961 10.9568V12.0003L7.82617 12.522L9.91309 13.5655L9.39138 14.609H11.4783V16.1742H12.5218V14.609H14.6088L14.087 13.5655Z" fill="#D80027"/>
    </symbol>
    <symbol id="country-th" viewBox="0 0 24 24">
      <path d="M12 24C18.6274 24 24 18.6274 24 12C24 5.37258 18.6274 0 12 0C5.37258 0 0 5.37258 0 12C0 18.6274 5.37258 24 12 24Z" fill="#F0F0F0"/>
      <path d="M23.2536 7.82617H0.746391C0.264 9.12616 0 10.5322 0 12.0001C0 13.4679 0.264 14.874 0.746391 16.174H23.2537C23.736 14.874 24 13.4679 24 12.0001C24 10.5322 23.736 9.12616 23.2536 7.82617Z" fill="#0052B4"/>
      <path d="M11.9999 0C8.36285 0 5.10396 1.61831 2.90332 4.17389H21.0965C18.8959 1.61831 15.637 0 11.9999 0Z" fill="#D80027"/>
      <path d="M21.0965 19.8262H2.90332C5.10396 22.3818 8.36285 24.0001 11.9999 24.0001C15.637 24.0001 18.8959 22.3818 21.0965 19.8262Z" fill="#D80027"/>
    </symbol>
    <symbol id="country-ir" viewBox="0 0 24 24">
      <path d="M12 24C18.6274 24 24 18.6274 24 12C24 5.37258 18.6274 0 12 0C5.37258 0 0 5.37258 0 12C0 18.6274 5.37258 24 12 24Z" fill="#F0F0F0"/>
      <path d="M15.8976 8.86968H14.3275C14.3405 9.04222 14.3479 9.21632 14.3479 9.39139C14.3479 10.5522 14.0577 11.6773 13.5519 12.4783C13.3958 12.7253 13.1336 13.0741 12.7826 13.3094V8.86963H11.2174V13.3094C10.8665 13.0741 10.6042 12.7253 10.4481 12.4783C9.94227 11.6773 9.65216 10.5522 9.65216 9.39139C9.65216 9.21632 9.65957 9.04218 9.67251 8.86968H8.10248C8.0924 9.04138 8.08691 9.21529 8.08691 9.39139C8.08691 12.6096 9.80573 15.1305 11.9999 15.1305C14.1942 15.1305 15.913 12.6096 15.913 9.39139C15.9131 9.21529 15.9076 9.04138 15.8976 8.86968Z" fill="#D80027"/>
      <path d="M4.95623 5.73914H6.52143V6.78263H8.08663V5.73914H9.65184V6.78263H11.217V5.73914H12.7822V6.78263H14.3474V5.73914H15.9126V6.78263H17.4778V5.73914H19.0431V6.78263H22.8088C20.868 2.76867 16.7572 0 11.9997 0C7.24223 0 3.13143 2.76867 1.19043 6.78263H4.95623V5.73914Z" fill="#6DA544"/>
      <path d="M19.0432 17.2173V18.2608H17.478V17.2173H15.9128V18.2608H14.3476V17.2173H12.7824V18.2608H11.2172V17.2173H9.65198V18.2608H8.08677V17.2173H6.52143V18.2608H4.95623V17.2173H1.19043C3.13143 21.2312 7.24218 23.9999 11.9997 23.9999C16.7572 23.9999 20.868 21.2312 22.809 17.2173H19.0432Z" fill="#D80027"/>
    </symbol>
    <symbol id="country-ua" viewBox="0 0 24 24">
      <path d="M12 24C18.6274 24 24 18.6274 24 12C24 5.37258 18.6274 0 12 0C5.37258 0 0 5.37258 0 12C0 18.6274 5.37258 24 12 24Z" fill="#FFDA44"/>
      <path d="M0 12C0 5.37262 5.37262 0 12 0C18.6274 0 24 5.37262 24 12" fill="#338AF3"/>
    </symbol>
    <symbol id="country-pk" viewBox="0 0 24 24">
      <path d="M12 24C18.6274 24 24 18.6274 24 12C24 5.37258 18.6274 0 12 0C5.37258 0 0 5.37258 0 12C0 18.6274 5.37258 24 12 24Z" fill="#F0F0F0"/>
      <path d="M0 11.9999C0 16.5484 2.53073 20.5056 6.26086 22.5408V1.45898C2.53073 3.49425 0 7.45139 0 11.9999Z" fill="#F0F0F0"/>
      <path d="M11.9999 0C9.92098 0 7.96563 0.528891 6.26074 1.45908V22.5409C7.96563 23.4711 9.92098 24 11.9999 24C18.6273 24 23.9999 18.6274 23.9999 12C23.9999 5.37262 18.6273 0 11.9999 0Z" fill="#496E2D"/>
      <path d="M17.1307 13.9845C15.6126 15.0814 13.4926 14.7399 12.3957 13.2219C11.2987 11.7037 11.6402 9.58374 13.1584 8.48687C13.6317 8.14487 14.1636 7.9427 14.7046 7.87243C13.6637 7.71676 12.5633 7.95132 11.6428 8.61643C9.77437 9.96653 9.35404 12.5756 10.7041 14.4442C12.0541 16.3126 14.6633 16.7329 16.5318 15.3827C17.4524 14.7176 18.0206 13.7467 18.1995 12.7094C17.963 13.2009 17.6041 13.6424 17.1307 13.9845Z" fill="#F0F0F0"/>
      <path d="M17.0659 7.82617L17.9211 8.74778L19.0618 8.21941L18.4495 9.31741L19.3046 10.2391L18.0711 9.99606L17.4588 11.0942L17.3088 9.84588L16.0752 9.60283L17.216 9.07445L17.0659 7.82617Z" fill="#F0F0F0"/>
    </symbol>
    <symbol id="country-eg" viewBox="0 0 24 24">
      <path d="M12 24C18.6274 24 24 18.6274 24 12C24 5.37258 18.6274 0 12 0C5.37258 0 0 5.37258 0 12C0 18.6274 5.37258 24 12 24Z" fill="#F0F0F0"/>
      <path d="M11.9997 0C6.84013 0 2.44161 3.2565 0.746094 7.82611H23.2534C21.5578 3.2565 17.1593 0 11.9997 0Z" fill="#D80027"/>
      <path d="M11.9997 23.9999C17.1593 23.9999 21.5578 20.7434 23.2533 16.1738H0.746094C2.44161 20.7434 6.84013 23.9999 11.9997 23.9999Z" fill="black"/>
      <path d="M16.174 10.6958H13.0436C13.0436 10.1195 12.5764 9.65234 12.0001 9.65234C11.4238 9.65234 10.9566 10.1195 10.9566 10.6958H7.82617C7.82617 11.2722 8.32816 11.7393 8.90444 11.7393H8.86966C8.86966 12.3156 9.33681 12.7828 9.91314 12.7828C9.91314 13.3591 10.3803 13.8263 10.9566 13.8263H13.0436C13.6199 13.8263 14.0871 13.3591 14.0871 12.7828C14.6634 12.7828 15.1306 12.3156 15.1306 11.7393H15.0958C15.6721 11.7393 16.174 11.2722 16.174 10.6958Z" fill="#FF9811"/>
    </symbol>
    <symbol id="country-ar" viewBox="0 0 24 24">
      <path d="M12 24C18.6274 24 24 18.6274 24 12C24 5.37258 18.6274 0 12 0C5.37258 0 0 5.37258 0 12C0 18.6274 5.37258 24 12 24Z" fill="#F0F0F0"/>
      <path d="M11.9997 0C7.24218 0 3.13143 2.76867 1.19043 6.78263H22.8089C20.868 2.76867 16.7572 0 11.9997 0Z" fill="#338AF3"/>
      <path d="M11.9997 23.9999C16.7572 23.9999 20.868 21.2312 22.809 17.2173H1.19043C3.13143 21.2312 7.24218 23.9999 11.9997 23.9999Z" fill="#338AF3"/>
      <path d="M15.5864 11.9998L14.1208 12.6892L14.9012 14.1085L13.3098 13.804L13.1082 15.4117L11.9997 14.2293L10.8912 15.4117L10.6896 13.804L9.09821 14.1085L9.87859 12.6891L8.41309 11.9998L9.87863 11.3104L9.09821 9.89111L10.6896 10.1955L10.8913 8.58789L11.9997 9.77027L13.1082 8.58789L13.3098 10.1955L14.9013 9.89111L14.1209 11.3104L15.5864 11.9998Z" fill="#FFDA44"/>
    </symbol>
    <symbol id="country-es" viewBox="0 0 24 24">
      <path d="M0 12.0001C0 13.4679 0.264047 14.874 0.746391 16.174L12 17.2175L23.2536 16.174C23.736 14.874 24 13.4679 24 12.0001C24 10.5322 23.736 9.12618 23.2536 7.8262L12 6.78271L0.746391 7.8262C0.264047 9.12618 0 10.5322 0 12.0001Z" fill="#FFDA44"/>
      <path d="M23.2533 7.82611C21.5578 3.25655 17.1593 0 11.9997 0C6.84013 0 2.44161 3.25655 0.746094 7.82611H23.2533Z" fill="#D80027"/>
      <path d="M0.746094 16.1738C2.44161 20.7434 6.84013 23.9999 11.9997 23.9999C17.1593 23.9999 21.5578 20.7434 23.2533 16.1738H0.746094Z" fill="#D80027"/>
    </symbol>
    <symbol id="country-it" viewBox="0 0 24 24">
      <path d="M12 24C18.6274 24 24 18.6274 24 12C24 5.37258 18.6274 0 12 0C5.37258 0 0 5.37258 0 12C0 18.6274 5.37258 24 12 24Z" fill="#F0F0F0"/>
      <path d="M23.9999 12.0002C23.9999 6.84061 20.7434 2.4421 16.1738 0.746582V23.2538C20.7434 21.5583 23.9999 17.1598 23.9999 12.0002Z" fill="#D80027"/>
      <path d="M0 12.0002C0 17.1598 3.2565 21.5583 7.82611 23.2538V0.746582C3.2565 2.4421 0 6.84061 0 12.0002Z" fill="#6DA544"/>
    </symbol>
    <symbol id="country-om" viewBox="0 0 24 24">
      <path d="M12 24C18.6274 24 24 18.6274 24 12C24 5.37258 18.6274 0 12 0C5.37258 0 0 5.37258 0 12C0 18.6274 5.37258 24 12 24Z" fill="#F0F0F0"/>
      <path d="M0 11.9999C0 16.5484 2.53078 20.5056 6.26086 22.5408V1.45898C2.53078 3.4942 0 7.45139 0 11.9999Z" fill="#D80027"/>
      <path d="M23.2537 16.174C23.736 14.874 24 13.4679 24 12.0001C24 10.5322 23.736 9.12611 23.2537 7.82617H0.746437C0.264047 9.12611 0 10.5322 0 12.0001C0 13.4679 0.264047 14.874 0.746437 16.174L12 17.2174L23.2537 16.174Z" fill="#D80027"/>
      <path d="M11.9997 23.9999C17.1593 23.9999 21.5578 20.7434 23.2533 16.1738H0.746094C2.44156 20.7434 6.84013 23.9999 11.9997 23.9999Z" fill="#6DA544"/>
      <path d="M0 12.0002C0 17.5445 3.76036 22.2098 8.86955 23.5868V0.413574C3.76036 1.79057 0 6.45586 0 12.0002Z" fill="#D80027"/>
      <path d="M7.34159 5.28059L6.23483 4.17383L5.49702 4.91173L4.7592 4.17383L3.65244 5.28059L4.3903 6.01845L3.65234 6.75636L4.75911 7.86313L5.49697 7.12522L6.23483 7.86313L7.34159 6.75636L6.60373 6.01845L7.34159 5.28059Z" fill="#F0F0F0"/>
    </symbol>
    <symbol id="country-by" viewBox="0 0 24 24">
      <path d="M12 24C18.6274 24 24 18.6274 24 12C24 5.37258 18.6274 0 12 0C5.37258 0 0 5.37258 0 12C0 18.6274 5.37258 24 12 24Z" fill="#FCFCFC"/>
      <path d="M4.95669 11.1302L3.65234 8.76384L4.95669 6.43457L6.26103 8.76384L4.95669 11.1302Z" fill="#A2001D"/>
      <path d="M2.34829 11.1302L1.04395 8.76384L2.34829 6.43457L3.65263 8.76384L2.34829 11.1302Z" fill="#A2001D"/>
      <path d="M4.95669 17.5653L3.65234 15.1989L4.95669 12.8696L6.26103 15.1989L4.95669 17.5653Z" fill="#A2001D"/>
      <path d="M2.34829 17.5653L1.04395 15.1989L2.34829 12.8696L3.65263 15.1989L2.34829 17.5653Z" fill="#A2001D"/>
      <path d="M6.26138 2.32936L5.8921 1.66992C5.22976 2.06236 4.60852 2.51672 4.03613 3.02503L4.95704 4.6957L6.26138 2.32936Z" fill="#A2001D"/>
      <path d="M4.95702 19.3042L4.02637 20.9662C4.59824 21.4752 5.21905 21.9302 5.88112 22.3235L6.26141 21.6335L4.95702 19.3042Z" fill="#A2001D"/>
      <path d="M7.30469 15.1304V23.0458C8.74698 23.6597 10.3338 23.9999 12.0003 23.9999C17.1599 23.9999 21.5584 20.7434 23.254 16.1738L7.30469 15.1304Z" fill="#6DA544"/>
      <path d="M23.254 16.1739C23.7363 14.8739 24.0003 13.4678 24.0003 12C24.0003 5.37262 18.6277 0 12.0003 0C10.334 0 8.74698 0.339984 7.30469 0.953812V16.1739H23.254V16.1739Z" fill="#A2001D"/>
    </symbol>
    <symbol id="country-ve" viewBox="0 0 24 24">
      <path d="M22.8093 17.2175C23.5722 15.6399 24 13.87 24 12.0001C24 10.1302 23.5722 8.36037 22.8093 6.78274L12 5.73926L1.19072 6.78274C0.427828 8.36037 0 10.1302 0 12.0001C0 13.87 0.427828 15.6399 1.19072 17.2175L12 18.261L22.8093 17.2175Z" fill="#0052B4"/>
      <path d="M11.9997 23.9999C16.7572 23.9999 20.868 21.2312 22.809 17.2173H1.19043C3.13143 21.2312 7.24218 23.9999 11.9997 23.9999Z" fill="#D80027"/>
      <path d="M20.7824 14.3552L20.1486 14.8505L20.4236 15.6062L19.7568 15.1565L19.1229 15.6517L19.3445 14.8785L18.6777 14.4287L19.4816 14.4006L19.7034 13.6274L19.9786 14.3833L20.7824 14.3552Z" fill="#F0F0F0"/>
      <path d="M19.1595 11.5444L18.7334 12.2266L19.2505 12.8426L18.4699 12.6483L18.0437 13.3303L17.9875 12.5279L17.207 12.3333L17.9529 12.0319L17.8968 11.2295L18.4138 11.8458L19.1595 11.5444Z" fill="#F0F0F0"/>
      <path d="M16.6724 9.45752L16.5052 10.2443L17.2018 10.6465L16.4019 10.7308L16.2346 11.5174L15.9074 10.7827L15.1074 10.8666L15.7053 10.3284L15.3781 9.59369L16.0747 9.99579L16.6724 9.45752Z" fill="#F0F0F0"/>
      <path d="M13.6228 8.34766L13.7349 9.1442L14.527 9.2838L13.8041 9.63658L13.916 10.4331L13.3573 9.85445L12.6342 10.207L13.0119 9.49675L12.4531 8.91822L13.2453 9.05786L13.6228 8.34766Z" fill="#F0F0F0"/>
      <path d="M10.3767 8.34766L10.7544 9.05786L11.5464 8.91812L10.9878 9.49689L11.3653 10.2071L10.6424 9.85445L10.0835 10.4329L10.1956 9.63658L9.47266 9.28398L10.2648 9.1442L10.3767 8.34766Z" fill="#F0F0F0"/>
      <path d="M7.32614 9.45752L7.92398 9.99579L8.62041 9.59369L8.29336 10.3287L8.89106 10.8668L8.09114 10.7827L7.76386 11.5174L7.59684 10.7307L6.79688 10.6467L7.49344 10.2444L7.32614 9.45752Z" fill="#F0F0F0"/>
      <path d="M4.83973 11.5443L5.58565 11.8456L6.10249 11.2295L6.04657 12.032L6.79226 12.3334L6.01184 12.5279L5.95563 13.3301L5.52954 12.6482L4.74902 12.8426L5.26605 12.2265L4.83973 11.5443Z" fill="#F0F0F0"/>
      <path d="M3.2168 14.3556L4.0208 14.3836L4.29577 13.6279L4.51772 14.4012L5.32148 14.4293L4.65464 14.8791L4.87627 15.6522L4.24252 15.157L3.57562 15.6067L3.85073 14.8509L3.2168 14.3556Z" fill="#F0F0F0"/>
      <path d="M22.809 6.78263C20.868 2.76867 16.7572 0 11.9997 0C7.24218 0 3.13143 2.76867 1.19043 6.78263H22.809Z" fill="#FFDA44"/>
    </symbol>
    <symbol id="country-au" viewBox="0 0 24 24">
      <path d="M24 12C24 18.6274 18.6274 24 12 24C5.37262 24 0 18.6274 0 12C0 12.0028 12 0.00135937 12 0C18.6274 0 24 5.37262 24 12Z" fill="#0052B4"/>
      <path d="M11.9678 11.9999H11.9999C11.9999 11.989 11.9999 11.9786 11.9999 11.9678C11.9892 11.9785 11.9785 11.9892 11.9678 11.9999Z" fill="#F0F0F0"/>
      <path d="M12 6.26086C12 4.14937 12 2.76577 12 0H11.998C5.3715 0.00107813 0 5.37319 0 12H6.26086V8.47439L9.78642 12H11.9679C11.9787 11.9893 11.9894 11.9786 12 11.9678C12 11.1594 12 10.438 12 9.78647L8.47444 6.26086H12Z" fill="#F0F0F0"/>
      <path d="M6.07124 1.56543C4.19441 2.63413 2.63413 4.19441 1.56543 6.07124V12.0002H4.69588V4.69593L12.0002 4.69588C12.0002 3.70855 12.0002 2.76796 12.0002 1.56543H6.07124Z" fill="#D80027"/>
      <path d="M11.9998 10.5246L7.73641 6.26125H6.26074L11.9998 12.0003H11.9998C11.9998 12.0003 11.9998 10.9829 11.9998 10.5246Z" fill="#D80027"/>
      <path d="M7.23729 14.0869L7.89588 15.464L9.38309 15.1203L8.71709 16.4938L9.91305 17.4422L8.42398 17.7779L8.42815 19.3043L7.23729 18.3493L6.04648 19.3043L6.05065 17.7779L4.56152 17.4422L5.75754 16.4938L5.09145 15.1203L6.57874 15.464L7.23729 14.0869Z" fill="#F0F0F0"/>
      <path d="M17.9668 16.6958L18.2961 17.3843L19.0397 17.2125L18.7066 17.8992L19.3047 18.3735L18.5601 18.5413L18.5622 19.3045L17.9668 18.827L17.3714 19.3045L17.3734 18.5413L16.6289 18.3735L17.2269 17.8992L16.8939 17.2125L17.6375 17.3843L17.9668 16.6958Z" fill="#F0F0F0"/>
      <path d="M14.9033 9.39111L15.2326 10.0797L15.9762 9.90777L15.6432 10.5945L16.2412 11.0688L15.4967 11.2366L15.4987 11.9998L14.9033 11.5223L14.3079 11.9998L14.3099 11.2366L13.5654 11.0688L14.1634 10.5945L13.8304 9.90777L14.574 10.0797L14.9033 9.39111Z" fill="#F0F0F0"/>
      <path d="M17.9668 5.21729L18.2961 5.90588L19.0397 5.73399L18.7067 6.42075L19.3046 6.89494L18.5601 7.0628L18.5622 7.82602L17.9668 7.3485L17.3714 7.82602L17.3734 7.0628L16.6289 6.89494L17.2268 6.42075L16.8939 5.73399L17.6375 5.90588L17.9668 5.21729Z" fill="#F0F0F0"/>
      <path d="M20.6426 8.34766L20.9718 9.03625L21.7155 8.86431L21.3825 9.55108L21.9805 10.0253L21.2359 10.1932L21.238 10.9563L20.6426 10.4789L20.0472 10.9563L20.0492 10.1932L19.3047 10.0253L19.9027 9.55108L19.5697 8.86431L20.3133 9.03625L20.6426 8.34766Z" fill="#F0F0F0"/>
      <path d="M18.729 12L18.988 12.7972H19.8262L19.1481 13.2899L19.4072 14.087L18.729 13.5943L18.0509 14.087L18.3099 13.2899L17.6318 12.7972H18.47L18.729 12Z" fill="#F0F0F0"/>
    </symbol>
    <symbol id="country-nz" viewBox="0 0 24 24">
      <path d="M24 12C24 18.6274 18.6274 24 12 24C5.37262 24 0 18.6274 0 12C0 12.0029 12 0.0013125 12 0C18.6274 0 24 5.37262 24 12Z" fill="#0052B4"/>
      <path d="M11.9678 11.9999H11.9999C11.9999 11.9891 11.9999 11.9786 11.9999 11.9678C11.9892 11.9785 11.9785 11.9892 11.9678 11.9999Z" fill="#F0F0F0"/>
      <path d="M12 6.26086C12 4.14937 12 2.76586 12 0H11.998C5.3715 0.001125 0 5.37323 0 12H6.26086V8.47448L9.78642 12H11.9679C11.9786 11.9893 11.9894 11.9786 12 11.9679C12 11.1594 12 10.4381 12 9.78647L8.47444 6.26086H12Z" fill="#F0F0F0"/>
      <path d="M6.07124 1.56543C4.19441 2.63413 2.63413 4.19441 1.56543 6.07124V12.0002H4.69588V4.69598V4.69588H12.0002C12.0002 3.70855 12.0002 2.76796 12.0002 1.56543H6.07124Z" fill="#D80027"/>
      <path d="M11.9998 10.5247L7.73641 6.26123C7.73641 6.26123 6.26074 6.26132 6.26074 6.26123V6.26132L11.9998 12.0003H11.9998C11.9998 12.0003 11.9998 10.9828 11.9998 10.5247Z" fill="#D80027"/>
      <path d="M20.7808 8.90479L21.0398 9.70194H21.878L21.1999 10.1946L21.4589 10.9917L20.7808 10.4991L20.1027 10.9917L20.3617 10.1946L19.6836 9.70194H20.5218L20.7808 8.90479Z" fill="#D80027"/>
      <path d="M17.7854 14.6436L18.174 15.8393H19.4312L18.414 16.5783L18.8026 17.774L17.7854 17.035L16.7682 17.774L17.1568 16.5783L16.1396 15.8393H17.3969L17.7854 14.6436Z" fill="#D80027"/>
      <path d="M17.8978 5.25244L18.2216 6.24896H19.2693L18.4216 6.86466L18.7454 7.86113L17.8978 7.24524L17.0502 7.86113L17.374 6.86466L16.5264 6.24896H17.574L17.8978 5.25244Z" fill="#D80027"/>
      <path d="M15.0149 8.86963L15.4034 10.0654H16.6607L15.6435 10.8043L16.0321 12.0001L15.0149 11.2611L13.9977 12.0001L14.3863 10.8043L13.3691 10.0654H14.6264L15.0149 8.86963Z" fill="#D80027"/>
    </symbol>
    <symbol id="country-pl" viewBox="0 0 24 24">
      <path d="M12 24C18.6274 24 24 18.6274 24 12C24 5.37258 18.6274 0 12 0C5.37258 0 0 5.37258 0 12C0 18.6274 5.37258 24 12 24Z" fill="#F0F0F0"/>
      <path d="M24 12C24 18.6274 18.6274 24 12 24C5.37262 24 0 18.6274 0 12" fill="#D80027"/>
    </symbol>
    <symbol id="country-jp" viewBox="0 0 24 24">
      <path d="M12 24C18.6274 24 24 18.6274 24 12C24 5.37258 18.6274 0 12 0C5.37258 0 0 5.37258 0 12C0 18.6274 5.37258 24 12 24Z" fill="#F0F0F0"/>
      <path d="M11.9996 17.2175C14.8811 17.2175 17.217 14.8816 17.217 12.0001C17.217 9.11861 14.8811 6.78271 11.9996 6.78271C9.11812 6.78271 6.78223 9.11861 6.78223 12.0001C6.78223 14.8816 9.11812 17.2175 11.9996 17.2175Z" fill="#D80027"/>
    </symbol>
    <symbol id="country-kr" viewBox="0 0 24 24">
      <path d="M12 24C18.6274 24 24 18.6274 24 12C24 5.37258 18.6274 0 12 0C5.37258 0 0 5.37258 0 12C0 18.6274 5.37258 24 12 24Z" fill="#F0F0F0"/>
      <path d="M16.174 12.0001C16.174 13.0435 14.3052 15.6522 12.0001 15.6522C9.69489 15.6522 7.82617 13.0435 7.82617 12.0001C7.82617 9.69484 9.69489 7.82617 12.0001 7.82617C14.3052 7.82617 16.174 9.69484 16.174 12.0001Z" fill="#D80027"/>
      <path d="M16.174 12C16.174 14.3052 14.3052 16.1739 12.0001 16.1739C9.69489 16.1739 7.82617 14.3052 7.82617 12" fill="#0052B4"/>
      <path d="M16.4238 15.6895L17.5304 14.5829L18.2682 15.3206L17.1616 16.4272L16.4238 15.6895Z" fill="black"/>
      <path d="M14.5791 17.5337L15.6857 16.4271L16.4234 17.1648L15.3168 18.2714L14.5791 17.5337Z" fill="black"/>
      <path d="M18.6367 17.9023L19.7433 16.7957L20.4811 17.5335L19.3745 18.6401L18.6367 17.9023Z" fill="black"/>
      <path d="M16.792 19.7471L17.8986 18.6405L18.6363 19.3782L17.5297 20.4848L16.792 19.7471Z" fill="black"/>
      <path d="M17.5303 16.7959L18.6369 15.6893L19.3746 16.427L18.268 17.5336L17.5303 16.7959Z" fill="black"/>
      <path d="M15.6865 18.6406L16.7931 17.534L17.5309 18.2718L16.4243 19.3784L15.6865 18.6406Z" fill="black"/>
      <path d="M18.6416 8.3125L15.6907 5.36156L16.4284 4.62382L19.3793 7.57476L18.6416 8.3125Z" fill="black"/>
      <path d="M15.6904 7.5752L14.5838 6.4686L15.3215 5.73089L16.4281 6.83748L15.6904 7.5752Z" fill="black"/>
      <path d="M17.5352 9.41992L16.4286 8.31332L17.1663 7.57561L18.2729 8.68221L17.5352 9.41992Z" fill="black"/>
      <path d="M17.9033 5.36133L16.7967 4.25473L17.5345 3.51699L18.6411 4.62358L17.9033 5.36133Z" fill="black"/>
      <path d="M19.749 7.20654L18.6424 6.09994L19.3802 5.3622L20.4868 6.4688L19.749 7.20654Z" fill="black"/>
      <path d="M4.25391 16.7939L7.20485 19.7449L6.4671 20.4826L3.51616 17.5317L4.25391 16.7939Z" fill="black"/>
      <path d="M7.20508 17.5312L8.31168 18.6378L7.57397 19.3756L6.46737 18.269L7.20508 17.5312Z" fill="black"/>
      <path d="M5.36035 15.687L6.46695 16.7936L5.72921 17.5314L4.62261 16.4248L5.36035 15.687Z" fill="black"/>
      <path d="M6.4668 14.5801L9.41774 17.531L8.67999 18.2688L5.72905 15.3178L6.4668 14.5801Z" fill="black"/>
      <path d="M7.20508 4.25244L4.25414 7.20338L3.51639 6.46564L6.46733 3.5147L7.20508 4.25244Z" fill="black"/>
      <path d="M8.31152 5.35938L5.36058 8.31032L4.62284 7.57257L7.57378 4.62163L8.31152 5.35938Z" fill="black"/>
      <path d="M9.41895 6.46631L6.468 9.41725L5.73029 8.67954L8.68123 5.7286L9.41895 6.46631Z" fill="black"/>
    </symbol>
    <symbol id="country-tw" viewBox="0 0 24 24">
      <path d="M24 12C24 18.6274 18.6274 24 12 24C5.37262 24 0 18.6274 0 12C4.12172 7.87828 7.61737 4.38263 12 0C18.6274 0 24 5.37262 24 12Z" fill="#D80027"/>
      <path d="M12 12C12 5.37262 12 4.59131 12 0C5.37262 0 0 5.37262 0 12H12Z" fill="#0052B4"/>
      <path d="M10.435 7.02268L8.96945 7.71212L9.74983 9.13145L8.15847 8.82695L7.95677 10.4346L6.84836 9.25225L5.73986 10.4346L5.53825 8.82695L3.94684 9.13136L4.72722 7.71203L3.26172 7.02268L4.72727 6.33339L3.94684 4.91401L5.5382 5.21846L5.73991 3.61084L6.84836 4.79321L7.95681 3.61084L8.15847 5.21846L9.74988 4.91401L8.96945 6.33343L10.435 7.02268Z" fill="#F0F0F0"/>
      <path d="M6.84799 9.25653C8.08165 9.25653 9.08173 8.25645 9.08173 7.0228C9.08173 5.78914 8.08165 4.78906 6.84799 4.78906C5.61434 4.78906 4.61426 5.78914 4.61426 7.0228C4.61426 8.25645 5.61434 9.25653 6.84799 9.25653Z" fill="#0052B4"/>
      <path d="M6.84841 8.21302C6.19211 8.21302 5.6582 7.67907 5.6582 7.02277C5.6582 6.36647 6.19216 5.83252 6.84841 5.83252C7.5047 5.83252 8.03866 6.36647 8.03866 7.02277C8.03861 7.67907 7.50461 8.21302 6.84841 8.21302Z" fill="#F0F0F0"/>
    </symbol>
    <symbol id="country-bd" viewBox="0 0 24 24">
      <path d="M12 24C18.6274 24 24 18.6274 24 12C24 5.37258 18.6274 0 12 0C5.37258 0 0 5.37258 0 12C0 18.6274 5.37258 24 12 24Z" fill="#496E2D"/>
      <path d="M9.3912 17.2175C12.2727 17.2175 14.6086 14.8816 14.6086 12.0001C14.6086 9.11861 12.2727 6.78271 9.3912 6.78271C6.50973 6.78271 4.17383 9.11861 4.17383 12.0001C4.17383 14.8816 6.50973 17.2175 9.3912 17.2175Z" fill="#D80027"/>
    </symbol>
    <symbol id="country-se" viewBox="0 0 24 24">
      <path d="M12 24C18.6274 24 24 18.6274 24 12C24 5.37258 18.6274 0 12 0C5.37258 0 0 5.37258 0 12C0 18.6274 5.37258 24 12 24Z" fill="#FFDA44"/>
      <path d="M9.39165 10.4348H23.8987C23.1317 4.54697 18.0972 0 12.0003 0C11.1043 0 10.2316 0.0990469 9.3916 0.285234L9.39165 10.4348Z" fill="#0052B4"/>
      <path d="M6.26084 10.4347V1.45898C2.96581 3.25683 0.607016 6.55453 0.101562 10.4347L6.26084 10.4347Z" fill="#0052B4"/>
      <path d="M6.2608 13.5654H0.101562C0.607016 17.4456 2.96581 20.7433 6.26084 22.5411L6.2608 13.5654Z" fill="#0052B4"/>
      <path d="M9.3916 13.5655V23.715C10.2316 23.9012 11.1043 24.0002 12.0003 24.0002C18.0972 24.0002 23.1317 19.4533 23.8987 13.5654H9.3916V13.5655Z" fill="#0052B4"/>
    </symbol>
    <symbol id="country-ee" viewBox="0 0 24 24">
      <path d="M0 11.9999C0 13.4677 0.264047 14.8738 0.746391 16.1737L12 16.6955L23.2536 16.1738C23.736 14.8738 24 13.4677 24 11.9999C24 10.532 23.736 9.12595 23.2536 7.82596L12 7.3042L0.746391 7.82592C0.264047 9.12595 0 10.532 0 11.9999Z" fill="black"/>
      <path d="M11.9997 0C6.84013 0 2.44161 3.2565 0.746094 7.82611H23.2534C21.5578 3.2565 17.1593 0 11.9997 0Z" fill="#0052B4"/>
      <path d="M23.2533 16.1738H0.746094C2.44161 20.7434 6.84013 23.9999 11.9997 23.9999C17.1593 23.9999 21.5578 20.7434 23.2533 16.1738Z" fill="#F0F0F0"/>
    </symbol>
      <symbol id="instagram" viewBox="0 0 20 20">
        <path id="Vector" d="M15 0L5 0C2.24 0 0 2.24 0 5L0 15C0 17.76 2.24 20 5 20L15 20C17.76 20 20 17.76 20 15L20 5C20 2.24 17.76 0 15 0ZM10 15C7.24 15 5 12.76 5 10C5 7.24 7.24 5 10 5C12.76 5 15 7.24 15 10C15 12.76 12.76 15 10 15ZM15.35 5.62C14.8 5.62 14.35 5.17 14.35 4.62C14.35 4.07 14.8 3.62 15.35 3.62C15.9 3.62 16.35 4.07 16.35 4.62C16.35 5.17 15.9 5.62 15.35 5.62Z" fill="rgb(0,0,0)" fill-rule="nonzero" />
        <path id="Vector" d="M10 13C11.6569 13 13 11.6569 13 10C13 8.34315 11.6569 7 10 7C8.34315 7 7 8.34315 7 10C7 11.6569 8.34315 13 10 13Z" fill="rgb(0,0,0)" fill-rule="nonzero" />

    </symbol>
      <symbol id="instagram" viewBox="0 0 20 20">
        <path id="Vector" d="M15 0L5 0C2.24 0 0 2.24 0 5L0 15C0 17.76 2.24 20 5 20L15 20C17.76 20 20 17.76 20 15L20 5C20 2.24 17.76 0 15 0ZM10 15C7.24 15 5 12.76 5 10C5 7.24 7.24 5 10 5C12.76 5 15 7.24 15 10C15 12.76 12.76 15 10 15ZM15.35 5.62C14.8 5.62 14.35 5.17 14.35 4.62C14.35 4.07 14.8 3.62 15.35 3.62C15.9 3.62 16.35 4.07 16.35 4.62C16.35 5.17 15.9 5.62 15.35 5.62Z" fill="rgb(0,0,0)" fill-rule="nonzero" />
        <path id="Vector" d="M10 13C11.6569 13 13 11.6569 13 10C13 8.34315 11.6569 7 10 7C8.34315 7 7 8.34315 7 10C7 11.6569 8.34315 13 10 13Z" fill="rgb(0,0,0)" fill-rule="nonzero" />

    </symbol>
    <symbol id="twitter" viewBox="0 0 40 40">
      <path d="M30 0C35.5228 0 40 4.47715 40 10L40 30C40 35.5228 35.5228 40 30 40L10 40C4.47715 40 0 35.5228 0 30L0 10C0 4.47715 4.47715 0 10 0L30 0ZM17.8555 21.1191L10.2148 30L11.9414 30L18.6221 22.2344L23.958 30L29.7852 30L21.8613 18.4688L29.1475 10L27.4209 10L21.0947 17.3535L16.042 10L10.2148 10L17.8555 21.1191Z" fill="rgb(255,215,0)" fill-rule="evenodd" />
    </symbol>
    <symbol id="facebook" viewBox="0 0 12 22">
      <path d="M7.41572 22L7.41572 11.9655L10.7825 11.9655L11.2877 8.05372L7.41572 8.05372L7.41572 5.55662C7.41572 4.42442 7.72884 3.65284 9.35424 3.65284L11.4239 3.65199L11.4239 0.153153C11.066 0.10664 9.83739 0 8.40739 0C5.42133 0 3.37702 1.82266 3.37702 5.1692L3.37702 8.05372L0 8.05372L0 11.9655L3.37702 11.9655L3.37702 22L7.41572 22Z" fill="rgb(1,0,2)" fill-rule="nonzero" />
    </symbol>
    <symbol id="tiktok" viewBox="0 0 18 20">
      <path id="Vector" d="M17.5351 5C16.3936 5 15.3405 4.62187 14.4948 3.98398C13.5249 3.25273 12.828 2.18008 12.5819 0.94375C12.521 0.638281 12.4882 0.323047 12.4851 0L9.2245 0L9.2245 8.90938L9.2206 13.7895C9.2206 15.0941 8.37099 16.2004 7.19325 16.5895C6.85146 16.7023 6.48232 16.7559 6.09794 16.7348C5.60732 16.7078 5.14755 16.5598 4.74794 16.3207C3.89755 15.8121 3.32099 14.8895 3.30536 13.834C3.28075 12.1844 4.61435 10.8395 6.26278 10.8395C6.58818 10.8395 6.90068 10.8926 7.19325 10.9891L7.19325 8.55391L7.19325 7.67852C6.88466 7.63281 6.5706 7.60898 6.25302 7.60898C4.44872 7.60898 2.76122 8.35898 1.55497 9.71016C0.643254 10.7312 0.0963787 12.034 0.0120037 13.4C-0.0985432 15.1945 0.558097 16.9004 1.83153 18.159C2.01864 18.3438 2.21513 18.5152 2.4206 18.6734C3.51239 19.5137 4.84716 19.9691 6.25302 19.9691C6.5706 19.9691 6.88466 19.9457 7.19325 19.9C8.50654 19.7055 9.71825 19.1043 10.6745 18.159C11.8495 16.9977 12.4987 15.4559 12.5058 13.8148L12.489 6.52734C13.0495 6.95977 13.6624 7.31758 14.3202 7.59531C15.3433 8.02695 16.428 8.2457 17.5444 8.24531L17.5444 5.87773L17.5444 4.99922C17.5452 5 17.5358 5 17.5351 5Z" fill="rgb(0,0,0)" fill-rule="nonzero" />
    </symbol>
    <symbol id="email" viewBox="0 0 20 15">
        <path id="Vector" d="M10.5785 9.89415C10.3896 10.0122 10.1771 10.0594 9.98819 10.0594C9.79929 10.0594 9.58678 10.0122 9.39787 9.89415L0 4.15625L0 11.7832C0 13.4124 1.32231 14.7348 2.95159 14.7348L17.0484 14.7348C18.6777 14.7348 20 13.4124 20 11.7832L20 4.15625L10.5785 9.89415Z" fill="rgb(0,0,0)" fill-rule="nonzero" />
			<path id="Vector" d="M17.0487 0L2.95187 0C1.55872 0 0.37808 0.991735 0.0947266 2.31405L10.0121 8.35891L19.9058 2.31405C19.6225 0.991735 18.4418 0 17.0487 0Z" fill="rgb(0,0,0)" fill-rule="nonzero" />
    </symbol>
    <symbol id="footer-logo" viewBox="0 0 176 47">
      <path d="M0.000214905 25.5999L18.3202 3.1999H0.360215V-9.91821e-05H22.5202V2.7999L4.52022 25.1999H22.5202V28.3999H0.000214905V25.5999Z" fill="#FFD700"/>
      <path d="M35.4487 28.7999C33.8753 28.7999 32.4353 28.5199 31.1287 27.9599C29.8487 27.3732 28.7287 26.5866 27.7687 25.5999C26.8353 24.5866 26.102 23.4266 25.5687 22.1199C25.062 20.8132 24.8087 19.4266 24.8087 17.9599C24.8087 15.9866 25.262 14.1866 26.1687 12.5599C27.0753 10.9332 28.3287 9.62657 29.9287 8.6399C31.5553 7.65323 33.4087 7.1599 35.4887 7.1599C37.5953 7.1599 39.422 7.66657 40.9687 8.6799C42.542 9.66657 43.7553 10.9732 44.6087 12.5999C45.4887 14.1999 45.9287 15.9332 45.9287 17.7999C45.9287 18.0666 45.9153 18.3332 45.8887 18.5999C45.8887 18.8399 45.8753 19.0266 45.8487 19.1599H28.5287C28.6353 20.5199 29.0087 21.7332 29.6487 22.7999C30.3153 23.8399 31.1687 24.6666 32.2087 25.2799C33.2487 25.8666 34.3687 26.1599 35.5687 26.1599C36.8487 26.1599 38.0487 25.8399 39.1687 25.1999C40.3153 24.5599 41.102 23.7199 41.5287 22.6799L44.5687 23.5199C44.1153 24.5332 43.4353 25.4399 42.5287 26.2399C41.6487 27.0399 40.5953 27.6666 39.3687 28.1199C38.1687 28.5732 36.862 28.7999 35.4487 28.7999ZM28.4087 16.7199H42.6487C42.542 15.3599 42.1553 14.1599 41.4887 13.1199C40.822 12.0799 39.9687 11.2666 38.9287 10.6799C37.8887 10.0932 36.742 9.7999 35.4887 9.7999C34.262 9.7999 33.1287 10.0932 32.0887 10.6799C31.0487 11.2666 30.1953 12.0799 29.5287 13.1199C28.8887 14.1599 28.5153 15.3599 28.4087 16.7199ZM67.9615 28.3999H64.4415V16.7199C64.4415 14.5066 64.0948 12.8932 63.4015 11.8799C62.7348 10.8399 61.7081 10.3199 60.3215 10.3199C59.3615 10.3199 58.4015 10.5599 57.4415 11.0399C56.5081 11.5199 55.6681 12.1732 54.9215 12.9999C54.2015 13.7999 53.6815 14.7332 53.3615 15.7999V28.3999H49.8415V7.5199H53.0415V11.9999C53.6015 11.0132 54.3215 10.1599 55.2015 9.4399C56.0815 8.7199 57.0815 8.1599 58.2015 7.7599C59.3215 7.3599 60.4948 7.1599 61.7215 7.1599C62.9215 7.1599 63.9215 7.38657 64.7215 7.8399C65.5481 8.26657 66.1881 8.8799 66.6415 9.6799C67.1215 10.4532 67.4548 11.3732 67.6415 12.4399C67.8548 13.5066 67.9615 14.6666 67.9615 15.9199V28.3999ZM82.5552 28.7999C80.9819 28.7999 79.5552 28.5199 78.2752 27.9599C76.9952 27.3732 75.8885 26.5866 74.9552 25.5999C74.0219 24.5866 73.3019 23.4266 72.7952 22.1199C72.2885 20.8132 72.0352 19.4399 72.0352 17.9999C72.0352 16.5332 72.2885 15.1466 72.7952 13.8399C73.3019 12.5332 74.0219 11.3866 74.9552 10.3999C75.8885 9.38657 76.9952 8.5999 78.2752 8.0399C79.5819 7.45324 81.0085 7.1599 82.5552 7.1599C84.1285 7.1599 85.5552 7.45324 86.8352 8.0399C88.1152 8.5999 89.2219 9.38657 90.1552 10.3999C91.1152 11.3866 91.8485 12.5332 92.3552 13.8399C92.8619 15.1466 93.1152 16.5332 93.1152 17.9999C93.1152 19.4399 92.8619 20.8132 92.3552 22.1199C91.8485 23.4266 91.1285 24.5866 90.1952 25.5999C89.2619 26.5866 88.1419 27.3732 86.8352 27.9599C85.5552 28.5199 84.1285 28.7999 82.5552 28.7999ZM75.6352 18.0399C75.6352 19.4799 75.9419 20.7866 76.5552 21.9599C77.1952 23.1332 78.0352 24.0666 79.0752 24.7599C80.1152 25.4266 81.2752 25.7599 82.5552 25.7599C83.8352 25.7599 84.9952 25.4132 86.0352 24.7199C87.1019 24.0266 87.9419 23.0932 88.5552 21.9199C89.1952 20.7199 89.5152 19.3999 89.5152 17.9599C89.5152 16.5199 89.1952 15.2132 88.5552 14.0399C87.9419 12.8666 87.1019 11.9332 86.0352 11.2399C84.9952 10.5466 83.8352 10.1999 82.5552 10.1999C81.2752 10.1999 80.1152 10.5599 79.0752 11.2799C78.0352 11.9732 77.1952 12.9066 76.5552 14.0799C75.9419 15.2532 75.6352 16.5732 75.6352 18.0399ZM96.0062 -9.91821e-05L105.406 23.8799L114.766 -9.91821e-05H118.566L107.046 28.3999H103.766L92.2062 -9.91821e-05H96.0062ZM122.394 28.3999V-9.91821e-05H134.234C135.487 -9.91821e-05 136.634 0.266567 137.674 0.7999C138.714 1.30657 139.62 1.9999 140.394 2.8799C141.167 3.73324 141.767 4.70657 142.194 5.7999C142.62 6.86657 142.834 7.9599 142.834 9.0799C142.834 10.6266 142.487 12.1066 141.794 13.5199C141.1 14.9066 140.127 16.0399 138.874 16.9199C137.62 17.7732 136.154 18.1999 134.474 18.1999H125.994V28.3999H122.394ZM125.994 14.9999H134.274C135.26 14.9999 136.114 14.7332 136.834 14.1999C137.58 13.6666 138.154 12.9466 138.554 12.0399C138.98 11.1332 139.194 10.1466 139.194 9.0799C139.194 7.9599 138.954 6.9599 138.474 6.0799C137.994 5.17324 137.367 4.46657 136.594 3.9599C135.82 3.45323 134.967 3.1999 134.034 3.1999H125.994V14.9999ZM150.916 6.6399V28.3999H147.316V-9.91821e-05H150.356L167.716 22.1999V0.0399003H171.316V28.3999H168.036L150.916 6.6399Z" fill="white"/>
    </symbol>

</svg>